<svg width="78" height="28" viewBox="0 0 78 28" fill="none" xmlns="http://www.w3.org/2000/svg">
<path fill-rule="evenodd" clip-rule="evenodd" d="M6.72202 0.0613647C6.61083 0.110289 6.1787 0.22785 5.76173 0.322565C3.61968 0.809583 1.81394 2.34898 0.829592 4.52742C0.513707 5.2264 0.394627 5.6457 0.155869 6.89953C0.0259776 7.58194 0 8.75552 0 13.9471V20.1761L0.237037 20.7096C0.536141 21.3827 1.03893 21.6981 1.81302 21.6981C2.39486 21.6981 2.75775 21.5458 3.13357 21.1437L3.38628 20.8734L3.44249 13.8309C3.49727 6.96018 3.50384 6.77419 3.71439 6.20883C4.19403 4.92063 5.1334 3.99683 6.36823 3.59917C7.07359 3.37194 9.00751 3.4155 9.66293 3.67347C10.4897 3.99875 11.1035 4.48294 11.5345 5.14968C12.2538 6.26261 12.2629 6.3271 12.3261 10.7353C12.3898 15.1846 12.3695 15.072 13.174 15.4372C14.0291 15.8255 15.1061 15.5403 15.4878 14.8244C15.6648 14.4926 15.6742 14.2205 15.6402 10.4273C15.5991 5.85302 15.5747 5.68158 14.7366 4.09215C13.3707 1.5019 11.0547 0.110593 7.93502 0.00617437C7.37906 -0.0124249 6.83321 0.0124405 6.72202 0.0613647ZM46.9531 0.063487C46.8419 0.110491 46.3643 0.219967 45.8917 0.306595C42.7328 0.886104 40.0626 2.68508 38.7238 5.13614C38.3836 5.75891 38.3438 5.92913 38.5387 5.92913C38.7246 5.92913 39.642 6.42414 39.8773 6.65147C40.0791 6.84636 40.0788 6.84778 39.7339 7.47459C39.3042 8.25556 38.4074 9.64353 37.8629 10.3703C37.4521 10.9187 37.4513 10.9213 37.4712 11.7663C37.5178 13.7559 38.2288 15.9191 39.3268 17.4122C40.7969 19.4115 42.9308 20.7026 45.8651 21.3685C46.588 21.5324 47.5028 21.5465 57.4657 21.5465C68.5359 21.5465 68.4474 21.5491 69.8989 21.1743C70.6619 20.9773 72.3254 20.2647 73.122 19.7938C73.9798 19.2867 75.1129 18.2464 75.7822 17.3515C76.5476 16.3281 77.1606 14.8573 77.5061 13.2156C77.706 12.2661 77.7314 9.35767 77.5465 8.60784C77.4779 8.32986 77.3737 7.89773 77.315 7.64755C76.424 3.8543 73.2622 1.0541 68.8957 0.19146C68.186 0.0512582 66.7143 0.0267957 57.6173 0.00405202C51.8632 -0.0103018 47.0643 0.0163823 46.9531 0.063487ZM19.2563 0.31013C19.0895 0.384224 18.8394 0.567994 18.7004 0.718506L18.4477 0.992138L18.3971 8.08523L18.3466 15.1782L18.0256 15.8577C17.5142 16.9408 16.6736 17.6569 15.4585 18.0449C15.26 18.1083 14.5966 18.1602 13.9842 18.1602C12.6599 18.1602 11.8362 17.9356 11.0949 17.3723C10.6248 17.0152 9.90614 16.0686 9.90614 15.8065C9.90614 15.7334 9.84933 15.6167 9.77978 15.5473C9.68467 15.4522 9.64059 14.4055 9.60137 11.3069C9.54436 6.80522 9.56832 6.9716 8.91391 6.54261C8.62178 6.35106 8.41426 6.30375 7.86699 6.30375C7.28071 6.30375 7.13383 6.34236 6.82573 6.57738C6.18305 7.06753 6.16586 7.18226 6.16778 10.9703C6.17031 15.6787 6.3283 16.5466 7.5045 18.3118C8.5776 19.9223 10.0728 20.9422 12.0288 21.398C12.7445 21.5648 15.2501 21.5661 15.9725 21.4001C18.177 20.8937 19.7802 19.6939 20.8423 17.7558C21.2576 16.9981 21.2537 16.9121 20.773 16.1951C19.9193 14.9221 19.6657 13.8522 19.737 11.8247C19.809 9.77302 20.271 8.29508 21.3256 6.74215L21.7426 6.12806L21.7124 3.56005L21.6823 0.991938L21.4296 0.718306C21.2906 0.567793 21.0305 0.382204 20.8516 0.305987C20.4424 0.131619 19.6533 0.133639 19.2563 0.31013ZM26.8777 3.35192C24.4375 3.83813 22.1319 5.76235 20.9842 8.27022C20.196 9.99277 19.9319 12.3916 20.3403 14.1169C20.4991 14.7872 20.9616 15.7675 21.3454 16.2474C21.7573 16.7623 22.6263 17.3672 23.302 17.6093C24.271 17.9565 26.3107 17.9224 27.6968 17.5359C31.0512 16.6003 35.0596 13.5075 37.7305 9.79435C38.5008 8.72327 39.5244 7.02326 39.4608 6.92035C39.3993 6.82089 38.6616 6.43455 38.5332 6.43455C38.4844 6.43455 38.1983 6.80947 37.8973 7.26778C35.6427 10.701 32.5076 13.7049 29.7433 15.0808C29.2288 15.3368 28.6602 15.5921 28.4797 15.648C27.0291 16.0972 25.7638 16.1633 24.8703 15.8367C24.1942 15.5895 23.5378 14.9677 23.2522 14.3039C23.0031 13.7248 22.8125 12.4074 22.9534 12.2377C23.0059 12.1746 23.4919 12.0926 24.0334 12.0558C25.6484 11.9458 26.8279 11.6264 28.3538 10.8859C30.1057 10.0357 31.1883 9.07575 31.7779 7.84971C32.0639 7.25484 32.0938 7.1019 32.0926 6.23238C32.0911 5.15221 31.9318 4.72251 31.3194 4.14583C30.4078 3.28763 28.7169 2.98539 26.8777 3.35192ZM55.7473 4.76668V6.08076L51.3502 6.1313C48.9318 6.1591 46.8621 6.21975 46.7509 6.26615C44.8518 7.05844 43.9659 8.03692 43.6107 9.73431C43.3846 10.8146 43.4127 11.2556 43.7899 12.5501C44.0673 13.5023 44.9005 14.4392 45.9722 15.004C46.8173 15.4494 47.3949 15.532 49.662 15.5318C52.0363 15.5317 52.2451 15.4755 52.6335 14.7328C52.9325 14.1608 52.9335 13.568 52.6365 13.0063C52.2418 12.2599 52.0158 12.1966 49.7345 12.1941C48.0154 12.1921 47.7073 12.1672 47.3388 11.9999C46.3534 11.5525 46.3348 10.1651 47.3073 9.669C47.6914 9.473 47.8654 9.46573 51.5255 9.4911L55.343 9.51758V13.8136V18.1096L51.1986 18.1397C47.1603 18.1689 46.4031 18.1284 45.5379 17.8374C43.7451 17.2345 42.3835 16.127 41.6318 14.6606C41.011 13.4496 40.7932 12.4516 40.7958 10.8317C40.7979 9.52072 40.8866 8.94919 41.2618 7.82707C42.0354 5.51419 44.3289 3.78779 47.0542 3.46695C47.2209 3.44734 49.2451 3.43602 51.5524 3.44189L55.7473 3.4526V4.76668ZM69.343 3.69854C71.6641 4.38054 73.6358 6.21257 74.1912 8.2035C74.3768 8.86843 74.5958 10.2912 74.5958 10.8317C74.5958 11.4523 74.364 12.8686 74.1436 13.5945C73.6823 15.1143 72.3655 16.597 70.8228 17.3335C70.3703 17.5496 69.8181 17.775 69.5957 17.8342C69.3733 17.8935 69.0041 17.9911 68.7753 18.0511C68.5092 18.1209 66.8235 18.1602 64.1002 18.1602H59.8412V10.8485C59.8412 6.82705 59.8752 3.50284 59.9168 3.46119C59.9584 3.41955 61.9258 3.4058 64.2886 3.43066C68.3471 3.47332 68.6268 3.48808 69.343 3.69854ZM29.1119 4.60262C29.74 5.04607 29.9083 6.21955 29.5009 7.31519C29.1027 8.38586 27.5001 9.76514 25.9783 10.3469C25.2318 10.6322 23.6836 10.9769 23.1227 10.9825C22.9712 10.9841 23.0527 10.2784 23.3042 9.41054C24.197 6.32973 26.3952 4.15947 28.4043 4.37539C28.6545 4.40228 28.9729 4.50457 29.1119 4.60262ZM62.9668 6.36116C62.7792 6.48752 62.5207 6.7469 62.3923 6.93734L62.1589 7.28375L62.1878 10.8798C62.2166 14.4696 62.217 14.4764 62.4517 14.7765C62.581 14.9419 62.8539 15.1792 63.0582 15.3041C63.4116 15.52 63.5302 15.5309 65.5018 15.529C67.7715 15.5269 68.1591 15.471 69.1352 15.0052C70.2573 14.4696 71.1105 13.4135 71.4548 12.134C71.6136 11.5441 71.5936 10.0851 71.4174 9.40892C71.0438 7.97445 69.9349 6.83433 68.4341 6.34165C67.8629 6.15414 67.5498 6.1313 65.5506 6.1313C63.3852 6.1313 63.2961 6.13918 62.9668 6.36116ZM67.8382 9.68781C68.0935 9.83124 68.3044 10.0603 68.4408 10.3419C68.6284 10.7294 68.6365 10.8142 68.5177 11.1428C68.3518 11.6014 67.8343 12.0659 67.3992 12.1464C67.2174 12.1801 66.7274 12.1938 66.3105 12.1767L65.5524 12.1457L65.5237 10.9386C65.508 10.2747 65.5179 9.67204 65.5458 9.59926C65.5825 9.50374 65.8528 9.46704 66.5209 9.46704C67.2841 9.46704 67.514 9.50555 67.8382 9.68781Z" fill="#1E5DAA"/>
<path d="M2.99541 27.9488H2.48176L0.393099 24.7983H0.372134C0.377375 24.8821 0.38349 24.9779 0.390478 25.0856C0.397467 25.1917 0.402708 25.3054 0.406202 25.4269C0.411443 25.5466 0.414064 25.6689 0.414064 25.7937V27.9488H0V24.1979H0.511028L2.59183 27.3382H2.61018C2.60668 27.2783 2.60231 27.1937 2.59707 27.0842C2.59183 26.973 2.58659 26.8542 2.58135 26.7276C2.57785 26.5993 2.57611 26.4804 2.57611 26.371V24.1979H2.99541V27.9488ZM5.05001 25.0908C5.39244 25.0908 5.64665 25.166 5.81262 25.3165C5.9786 25.467 6.06158 25.7074 6.06158 26.0375V27.9488H5.74448L5.66062 27.5332H5.63966C5.55929 27.6358 5.47543 27.7222 5.38807 27.7923C5.30072 27.8607 5.19939 27.9129 5.08408 27.9488C4.97052 27.983 4.83075 28.0001 4.66477 28.0001C4.49006 28.0001 4.33457 27.9702 4.19829 27.9103C4.06377 27.8505 3.95719 27.7598 3.87857 27.6384C3.8017 27.5169 3.76327 27.363 3.76327 27.1766C3.76327 26.8961 3.87683 26.6806 4.10395 26.53C4.33107 26.3795 4.677 26.2974 5.14173 26.2837L5.63704 26.2632V26.0913C5.63704 25.8485 5.58375 25.6783 5.47718 25.5808C5.3706 25.4833 5.22035 25.4345 5.02642 25.4345C4.87617 25.4345 4.73291 25.4559 4.59664 25.4987C4.46036 25.5414 4.33107 25.5919 4.20878 25.6501L4.07512 25.3268C4.20441 25.2618 4.35291 25.2062 4.52064 25.16C4.68836 25.1139 4.86482 25.0908 5.05001 25.0908ZM5.6318 26.5634L5.19415 26.5814C4.83599 26.595 4.58353 26.6523 4.43677 26.7532C4.29002 26.8542 4.21664 26.997 4.21664 27.1817C4.21664 27.3425 4.26643 27.4613 4.36602 27.5383C4.4656 27.6153 4.59751 27.6538 4.76174 27.6538C5.01681 27.6538 5.22559 27.5845 5.38807 27.4459C5.55055 27.3074 5.6318 27.0996 5.6318 26.8225V26.5634ZM7.88556 27.6512C7.95719 27.6512 8.03057 27.6452 8.1057 27.6332C8.18082 27.6213 8.24197 27.6067 8.28914 27.5896V27.9206C8.23848 27.9428 8.16772 27.9616 8.07687 27.977C7.98777 27.9924 7.90041 28.0001 7.8148 28.0001C7.66281 28.0001 7.52478 27.9745 7.40074 27.9231C7.2767 27.8701 7.17711 27.7812 7.10198 27.6563C7.02861 27.5315 6.99192 27.3587 6.99192 27.1381V25.4705H6.58309V25.2627L6.99454 25.0959L7.1675 24.4853H7.42957V25.1369H8.2708V25.4705H7.42957V27.1253C7.42957 27.3014 7.47062 27.4331 7.55274 27.5203C7.6366 27.6076 7.74754 27.6512 7.88556 27.6512ZM9.30596 25.1369V27.9488H8.87093V25.1369H9.30596ZM9.09368 24.0851C9.16532 24.0851 9.22647 24.1082 9.27713 24.1543C9.32954 24.1988 9.35575 24.2689 9.35575 24.3647C9.35575 24.4588 9.32954 24.5289 9.27713 24.5751C9.22647 24.6213 9.16532 24.6444 9.09368 24.6444C9.01856 24.6444 8.95566 24.6213 8.905 24.5751C8.85608 24.5289 8.83162 24.4588 8.83162 24.3647C8.83162 24.2689 8.85608 24.1988 8.905 24.1543C8.95566 24.1082 9.01856 24.0851 9.09368 24.0851ZM12.705 26.5377C12.705 26.7686 12.6744 26.9747 12.6132 27.156C12.5521 27.3373 12.4639 27.4904 12.3485 27.6153C12.2332 27.7401 12.0935 27.8359 11.9292 27.9026C11.7668 27.9676 11.5824 28.0001 11.3763 28.0001C11.1841 28.0001 11.0076 27.9676 10.8469 27.9026C10.6879 27.8359 10.5499 27.7401 10.4328 27.6153C10.3175 27.4904 10.2276 27.3373 10.1629 27.156C10.1 26.9747 10.0686 26.7686 10.0686 26.5377C10.0686 26.2299 10.1219 25.9682 10.2284 25.7527C10.335 25.5355 10.487 25.3704 10.6844 25.2575C10.8836 25.1429 11.1203 25.0856 11.3946 25.0856C11.6567 25.0856 11.8856 25.1429 12.0812 25.2575C12.2787 25.3721 12.4315 25.538 12.5399 25.7552C12.6499 25.9708 12.705 26.2316 12.705 26.5377ZM10.5193 26.5377C10.5193 26.7635 10.5499 26.9593 10.611 27.1253C10.6722 27.2912 10.7665 27.4194 10.8941 27.5101C11.0216 27.6007 11.1858 27.6461 11.3868 27.6461C11.5859 27.6461 11.7493 27.6007 11.8768 27.5101C12.0061 27.4194 12.1013 27.2912 12.1625 27.1253C12.2236 26.9593 12.2542 26.7635 12.2542 26.5377C12.2542 26.3137 12.2236 26.1204 12.1625 25.9579C12.1013 25.7937 12.007 25.6672 11.8794 25.5782C11.7519 25.4893 11.5868 25.4448 11.3841 25.4448C11.0854 25.4448 10.8661 25.5414 10.7264 25.7347C10.5883 25.928 10.5193 26.1957 10.5193 26.5377ZM14.8172 25.0856C15.1579 25.0856 15.4156 25.1677 15.5903 25.3319C15.765 25.4944 15.8524 25.7561 15.8524 26.117V27.9488H15.4226V26.1452C15.4226 25.9109 15.3675 25.7356 15.2575 25.6193C15.1492 25.503 14.9823 25.4448 14.7569 25.4448C14.439 25.4448 14.2153 25.5329 14.086 25.7091C13.9568 25.8852 13.8921 26.1409 13.8921 26.4762V27.9488H13.4571V25.1369H13.8082L13.8738 25.5423H13.8974C13.9585 25.4431 14.0362 25.3601 14.1306 25.2934C14.2249 25.225 14.3306 25.1737 14.4477 25.1395C14.5647 25.1036 14.6879 25.0856 14.8172 25.0856ZM17.8231 25.0908C18.1655 25.0908 18.4197 25.166 18.5857 25.3165C18.7517 25.467 18.8347 25.7074 18.8347 26.0375V27.9488H18.5176L18.4337 27.5332H18.4127C18.3324 27.6358 18.2485 27.7222 18.1612 27.7923C18.0738 27.8607 17.9725 27.9129 17.8572 27.9488C17.7436 27.983 17.6038 28.0001 17.4379 28.0001C17.2632 28.0001 17.1077 27.9702 16.9714 27.9103C16.8369 27.8505 16.7303 27.7598 16.6517 27.6384C16.5748 27.5169 16.5364 27.363 16.5364 27.1766C16.5364 26.8961 16.6499 26.6806 16.877 26.53C17.1042 26.3795 17.4501 26.2974 17.9148 26.2837L18.4101 26.2632V26.0913C18.4101 25.8485 18.3568 25.6783 18.2503 25.5808C18.1437 25.4833 17.9934 25.4345 17.7995 25.4345C17.6493 25.4345 17.506 25.4559 17.3697 25.4987C17.2335 25.5414 17.1042 25.5919 16.9819 25.6501L16.8482 25.3268C16.9775 25.2618 17.126 25.2062 17.2937 25.16C17.4614 25.1139 17.6379 25.0908 17.8231 25.0908ZM18.4049 26.5634L17.9672 26.5814C17.6091 26.595 17.3566 26.6523 17.2099 26.7532C17.0631 26.8542 16.9897 26.997 16.9897 27.1817C16.9897 27.3425 17.0395 27.4613 17.1391 27.5383C17.2387 27.6153 17.3706 27.6538 17.5348 27.6538C17.7899 27.6538 17.9987 27.5845 18.1612 27.4459C18.3236 27.3074 18.4049 27.0996 18.4049 26.8225V26.5634ZM20.1686 27.9488H19.7309V23.9568H20.1686V27.9488ZM23.5885 25.0856C23.8331 25.0856 24.0428 25.1387 24.2175 25.2447C24.3922 25.3507 24.5259 25.4995 24.6185 25.6911C24.7111 25.881 24.7574 26.1033 24.7574 26.3582V26.6224H22.7735C22.7788 26.9525 22.8626 27.2039 23.0251 27.3767C23.1876 27.5494 23.4165 27.6358 23.7117 27.6358C23.8934 27.6358 24.0542 27.6196 24.1939 27.5871C24.3337 27.5546 24.4787 27.5067 24.6289 27.4434V27.818C24.4839 27.8812 24.3398 27.9274 24.1965 27.9565C24.055 27.9856 23.8873 28.0001 23.6934 28.0001C23.4173 28.0001 23.1762 27.9454 22.9701 27.8359C22.7657 27.7247 22.6067 27.5623 22.4931 27.3485C22.3795 27.1347 22.3228 26.873 22.3228 26.5634C22.3228 26.2607 22.3743 25.999 22.4774 25.7783C22.5822 25.556 22.729 25.3849 22.9177 25.2652C23.1081 25.1455 23.3317 25.0856 23.5885 25.0856ZM23.5833 25.4345C23.3509 25.4345 23.1657 25.509 23.0277 25.6578C22.8897 25.8066 22.8076 26.0144 22.7814 26.2812H24.3014C24.2996 26.1136 24.2725 25.9665 24.2201 25.8399C24.1695 25.7116 24.0917 25.6124 23.9869 25.5423C23.8821 25.4705 23.7475 25.4345 23.5833 25.4345ZM25.2527 26.7276V26.3479H26.5525V26.7276H25.2527ZM28.9294 25.9836H30.2686V27.8026C30.0677 27.8693 29.8607 27.9189 29.6475 27.9514C29.4361 27.9839 29.1994 28.0001 28.9373 28.0001C28.539 28.0001 28.2027 27.9223 27.9284 27.7666C27.6558 27.611 27.4488 27.3895 27.3073 27.1022C27.1657 26.8131 27.095 26.4702 27.095 26.0734C27.095 25.6851 27.1727 25.3465 27.3282 25.0574C27.4855 24.7684 27.7117 24.5443 28.007 24.3852C28.304 24.2245 28.6604 24.1441 29.0762 24.1441C29.2894 24.1441 29.4911 24.1637 29.6816 24.2031C29.8738 24.2407 30.052 24.2946 30.2162 24.3647L30.0458 24.7444C29.9043 24.6846 29.748 24.6332 29.5768 24.5905C29.4073 24.5477 29.2317 24.5263 29.05 24.5263C28.7373 24.5263 28.4691 24.5896 28.2455 24.7162C28.0236 24.8428 27.8532 25.0215 27.7344 25.2524C27.6174 25.4833 27.5588 25.757 27.5588 26.0734C27.5588 26.3864 27.6104 26.6592 27.7135 26.8918C27.8165 27.1227 27.9773 27.3023 28.1957 27.4306C28.4141 27.5588 28.6953 27.623 29.0395 27.623C29.2125 27.623 29.361 27.6136 29.485 27.5948C29.6091 27.5742 29.7218 27.5503 29.8231 27.5229V26.3735H28.9294V25.9836ZM33.6073 26.5377C33.6073 26.7686 33.5768 26.9747 33.5156 27.156C33.4545 27.3373 33.3662 27.4904 33.2509 27.6153C33.1356 27.7401 32.9958 27.8359 32.8316 27.9026C32.6691 27.9676 32.4848 28.0001 32.2787 28.0001C32.0865 28.0001 31.91 27.9676 31.7493 27.9026C31.5903 27.8359 31.4523 27.7401 31.3352 27.6153C31.2199 27.4904 31.1299 27.3373 31.0653 27.156C31.0024 26.9747 30.9709 26.7686 30.9709 26.5377C30.9709 26.2299 31.0242 25.9682 31.1308 25.7527C31.2374 25.5355 31.3894 25.3704 31.5868 25.2575C31.786 25.1429 32.0227 25.0856 32.297 25.0856C32.5591 25.0856 32.7879 25.1429 32.9836 25.2575C33.181 25.3721 33.3339 25.538 33.4422 25.7552C33.5523 25.9708 33.6073 26.2316 33.6073 26.5377ZM31.4217 26.5377C31.4217 26.7635 31.4523 26.9593 31.5134 27.1253C31.5746 27.2912 31.6689 27.4194 31.7964 27.5101C31.924 27.6007 32.0882 27.6461 32.2891 27.6461C32.4883 27.6461 32.6517 27.6007 32.7792 27.5101C32.9085 27.4194 33.0037 27.2912 33.0648 27.1253C33.126 26.9593 33.1566 26.7635 33.1566 26.5377C33.1566 26.3137 33.126 26.1204 33.0648 25.9579C33.0037 25.7937 32.9094 25.6672 32.7818 25.5782C32.6543 25.4893 32.4892 25.4448 32.2865 25.4448C31.9878 25.4448 31.7685 25.5414 31.6287 25.7347C31.4907 25.928 31.4217 26.1957 31.4217 26.5377ZM34.991 27.9488L33.9008 25.1369H34.3673L34.9989 26.8379C35.0426 26.9542 35.0871 27.0825 35.1325 27.2227C35.178 27.363 35.2094 27.4759 35.2269 27.5614H35.2452C35.2662 27.4759 35.3011 27.363 35.3501 27.2227C35.399 27.0808 35.4435 26.9525 35.4837 26.8379L36.1153 25.1369H36.5818L35.489 27.9488H34.991ZM38.1489 25.0856C38.3935 25.0856 38.6032 25.1387 38.7779 25.2447C38.9526 25.3507 39.0862 25.4995 39.1788 25.6911C39.2714 25.881 39.3177 26.1033 39.3177 26.3582V26.6224H37.3339C37.3391 26.9525 37.423 27.2039 37.5855 27.3767C37.748 27.5494 37.9768 27.6358 38.2721 27.6358C38.4538 27.6358 38.6145 27.6196 38.7543 27.5871C38.8941 27.5546 39.0391 27.5067 39.1893 27.4434V27.818C39.0443 27.8812 38.9002 27.9274 38.7569 27.9565C38.6154 27.9856 38.4477 28.0001 38.2538 28.0001C37.9777 28.0001 37.7366 27.9454 37.5305 27.8359C37.326 27.7247 37.1671 27.5623 37.0535 27.3485C36.9399 27.1347 36.8831 26.873 36.8831 26.5634C36.8831 26.2607 36.9347 25.999 37.0378 25.7783C37.1426 25.556 37.2893 25.3849 37.478 25.2652C37.6685 25.1455 37.8921 25.0856 38.1489 25.0856ZM38.1437 25.4345C37.9113 25.4345 37.7261 25.509 37.5881 25.6578C37.4501 25.8066 37.368 26.0144 37.3418 26.2812H38.8617C38.86 26.1136 38.8329 25.9665 38.7805 25.8399C38.7298 25.7116 38.6521 25.6124 38.5473 25.5423C38.4424 25.4705 38.3079 25.4345 38.1437 25.4345ZM41.3619 25.0856C41.4195 25.0856 41.4798 25.0891 41.5427 25.0959C41.6056 25.101 41.6615 25.1087 41.7104 25.119L41.6554 25.5141C41.6082 25.5021 41.5558 25.4927 41.4981 25.4859C41.4405 25.479 41.3863 25.4756 41.3356 25.4756C41.2203 25.4756 41.1111 25.4987 41.0081 25.5449C40.9067 25.5893 40.8176 25.6543 40.7408 25.7399C40.6639 25.8237 40.6036 25.9254 40.5599 26.0452C40.5163 26.1632 40.4944 26.2949 40.4944 26.4402V27.9488H40.0568V25.1369H40.4184L40.4656 25.6552H40.4839C40.5433 25.5509 40.615 25.4559 40.6988 25.3704C40.7827 25.2832 40.8797 25.2139 40.9897 25.1626C41.1015 25.1113 41.2256 25.0856 41.3619 25.0856ZM43.613 25.0856C43.9537 25.0856 44.2114 25.1677 44.3861 25.3319C44.5608 25.4944 44.6482 25.7561 44.6482 26.117V27.9488H44.2184V26.1452C44.2184 25.9109 44.1633 25.7356 44.0533 25.6193C43.9449 25.503 43.7781 25.4448 43.5527 25.4448C43.2348 25.4448 43.0111 25.5329 42.8818 25.7091C42.7525 25.8852 42.6879 26.1409 42.6879 26.4762V27.9488H42.2529V25.1369H42.604L42.6696 25.5423H42.6931C42.7543 25.4431 42.832 25.3601 42.9264 25.2934C43.0207 25.225 43.1264 25.1737 43.2435 25.1395C43.3605 25.1036 43.4837 25.0856 43.613 25.0856ZM46.6189 25.0908C46.9613 25.0908 47.2155 25.166 47.3815 25.3165C47.5475 25.467 47.6305 25.7074 47.6305 26.0375V27.9488H47.3134L47.2295 27.5332H47.2085C47.1282 27.6358 47.0443 27.7222 46.957 27.7923C46.8696 27.8607 46.7683 27.9129 46.653 27.9488C46.5394 27.983 46.3996 28.0001 46.2337 28.0001C46.0589 28.0001 45.9035 27.9702 45.7672 27.9103C45.6327 27.8505 45.5261 27.7598 45.4475 27.6384C45.3706 27.5169 45.3322 27.363 45.3322 27.1766C45.3322 26.8961 45.4457 26.6806 45.6728 26.53C45.9 26.3795 46.2459 26.2974 46.7106 26.2837L47.2059 26.2632V26.0913C47.2059 25.8485 47.1526 25.6783 47.0461 25.5808C46.9395 25.4833 46.7892 25.4345 46.5953 25.4345C46.4451 25.4345 46.3018 25.4559 46.1655 25.4987C46.0292 25.5414 45.9 25.5919 45.7777 25.6501L45.644 25.3268C45.7733 25.2618 45.9218 25.2062 46.0895 25.16C46.2572 25.1139 46.4337 25.0908 46.6189 25.0908ZM47.2007 26.5634L46.763 26.5814C46.4049 26.595 46.1524 26.6523 46.0057 26.7532C45.8589 26.8542 45.7855 26.997 45.7855 27.1817C45.7855 27.3425 45.8353 27.4613 45.9349 27.5383C46.0345 27.6153 46.1664 27.6538 46.3306 27.6538C46.5857 27.6538 46.7945 27.5845 46.957 27.4459C47.1194 27.3074 47.2007 27.0996 47.2007 26.8225V26.5634ZM49.8869 25.0856C50.2275 25.0856 50.4852 25.1677 50.6599 25.3319C50.8347 25.4944 50.922 25.7561 50.922 26.117V27.9488H50.4922V26.1452C50.4922 25.9109 50.4372 25.7356 50.3271 25.6193C50.2188 25.503 50.052 25.4448 49.8266 25.4448C49.5086 25.4448 49.285 25.5329 49.1557 25.7091C49.0264 25.8852 48.9618 26.1409 48.9618 26.4762V27.9488H48.5267V25.1369H48.8779L48.9434 25.5423H48.967C49.0282 25.4431 49.1059 25.3601 49.2002 25.2934C49.2946 25.225 49.4003 25.1737 49.5173 25.1395C49.6344 25.1036 49.7576 25.0856 49.8869 25.0856ZM52.9687 28.0001C52.7102 28.0001 52.4822 27.9479 52.2848 27.8436C52.0873 27.7393 51.9336 27.5802 51.8235 27.3664C51.7135 27.1526 51.6584 26.8832 51.6584 26.5583C51.6584 26.2179 51.7161 25.94 51.8314 25.7245C51.9484 25.5072 52.1092 25.3465 52.3136 25.2421C52.518 25.1378 52.7504 25.0856 53.0107 25.0856C53.1539 25.0856 53.292 25.1002 53.4247 25.1292C53.5593 25.1566 53.6693 25.1917 53.7549 25.2344L53.6239 25.591C53.5366 25.5568 53.4352 25.5261 53.3199 25.4987C53.2064 25.4713 53.0998 25.4576 53.0002 25.4576C52.801 25.4576 52.6351 25.4995 52.5023 25.5834C52.3712 25.6672 52.2725 25.7903 52.2061 25.9528C52.1415 26.1153 52.1092 26.3154 52.1092 26.5531C52.1092 26.7806 52.1406 26.9747 52.2035 27.1355C52.2682 27.2963 52.3634 27.4194 52.4892 27.505C52.6167 27.5888 52.7757 27.6307 52.9661 27.6307C53.1181 27.6307 53.2553 27.6153 53.3776 27.5845C53.4999 27.552 53.6108 27.5144 53.7104 27.4716V27.8513C53.6143 27.8992 53.5069 27.936 53.3881 27.9616C53.271 27.9873 53.1312 28.0001 52.9687 28.0001ZM55.4977 25.0856C55.7423 25.0856 55.9519 25.1387 56.1266 25.2447C56.3014 25.3507 56.435 25.4995 56.5276 25.6911C56.6202 25.881 56.6665 26.1033 56.6665 26.3582V26.6224H54.6827C54.6879 26.9525 54.7718 27.2039 54.9342 27.3767C55.0967 27.5494 55.3256 27.6358 55.6209 27.6358C55.8026 27.6358 55.9633 27.6196 56.1031 27.5871C56.2428 27.5546 56.3878 27.5067 56.5381 27.4434V27.818C56.3931 27.8812 56.2489 27.9274 56.1057 27.9565C55.9642 27.9856 55.7964 28.0001 55.6025 28.0001C55.3265 28.0001 55.0854 27.9454 54.8792 27.8359C54.6748 27.7247 54.5158 27.5623 54.4022 27.3485C54.2887 27.1347 54.2319 26.873 54.2319 26.5634C54.2319 26.2607 54.2834 25.999 54.3865 25.7783C54.4914 25.556 54.6381 25.3849 54.8268 25.2652C55.0172 25.1455 55.2409 25.0856 55.4977 25.0856ZM55.4924 25.4345C55.2601 25.4345 55.0749 25.509 54.9369 25.6578C54.7988 25.8066 54.7167 26.0144 54.6905 26.2812H56.2105C56.2088 26.1136 56.1817 25.9665 56.1293 25.8399C56.0786 25.7116 56.0009 25.6124 55.896 25.5423C55.7912 25.4705 55.6567 25.4345 55.4924 25.4345ZM61.9078 26.0375C61.9078 26.4599 61.8292 26.8131 61.672 27.097C61.5147 27.3792 61.2867 27.5922 60.988 27.7359C60.691 27.8778 60.3302 27.9488 59.9056 27.9488H58.8652V24.1979H60.0209C60.4105 24.1979 60.746 24.2681 61.0273 24.4083C61.3086 24.5469 61.5252 24.753 61.6772 25.0266C61.8309 25.2986 61.9078 25.6355 61.9078 26.0375ZM61.4387 26.0528C61.4387 25.7159 61.3811 25.438 61.2658 25.219C61.1522 25.0001 60.9845 24.8376 60.7626 24.7316C60.5425 24.6238 60.2725 24.57 59.9528 24.57H59.3107V27.5742H59.8532C60.3808 27.5742 60.7766 27.4468 61.0404 27.192C61.3059 26.9371 61.4387 26.5574 61.4387 26.0528ZM63.129 25.1369V27.9488H62.694V25.1369H63.129ZM62.9168 24.0851C62.9884 24.0851 63.0495 24.1082 63.1002 24.1543C63.1526 24.1988 63.1788 24.2689 63.1788 24.3647C63.1788 24.4588 63.1526 24.5289 63.1002 24.5751C63.0495 24.6213 62.9884 24.6444 62.9168 24.6444C62.8416 24.6444 62.7787 24.6213 62.7281 24.5751C62.6792 24.5289 62.6547 24.4588 62.6547 24.3647C62.6547 24.2689 62.6792 24.1988 62.7281 24.1543C62.7787 24.1082 62.8416 24.0851 62.9168 24.0851ZM64.6831 27.9488L63.5929 25.1369H64.0594L64.691 26.8379C64.7346 26.9542 64.7792 27.0825 64.8246 27.2227C64.87 27.363 64.9015 27.4759 64.919 27.5614H64.9373C64.9583 27.4759 64.9932 27.363 65.0421 27.2227C65.091 27.0808 65.1356 26.9525 65.1758 26.8379L65.8074 25.1369H66.2738L65.181 27.9488H64.6831ZM67.1701 25.1369V27.9488H66.7351V25.1369H67.1701ZM66.9578 24.0851C67.0295 24.0851 67.0906 24.1082 67.1413 24.1543C67.1937 24.1988 67.2199 24.2689 67.2199 24.3647C67.2199 24.4588 67.1937 24.5289 67.1413 24.5751C67.0906 24.6213 67.0295 24.6444 66.9578 24.6444C66.8827 24.6444 66.8198 24.6213 66.7691 24.5751C66.7202 24.5289 66.6958 24.4588 66.6958 24.3647C66.6958 24.2689 66.7202 24.1988 66.7691 24.1543C66.8198 24.1082 66.8827 24.0851 66.9578 24.0851ZM69.9506 27.1791C69.9506 27.3587 69.9043 27.5101 69.8117 27.6332C69.7209 27.7547 69.5898 27.8462 69.4186 27.9077C69.2492 27.9693 69.0465 28.0001 68.8106 28.0001C68.6097 28.0001 68.4359 27.9847 68.2891 27.9539C68.1424 27.9231 68.0139 27.8795 67.9039 27.8231V27.4306C68.0209 27.487 68.1607 27.5383 68.3232 27.5845C68.4857 27.6307 68.6516 27.6538 68.8211 27.6538C69.0692 27.6538 69.2492 27.6144 69.361 27.5357C69.4728 27.4571 69.5287 27.3502 69.5287 27.215C69.5287 27.1381 69.506 27.0705 69.4606 27.0124C69.4169 26.9525 69.3426 26.8952 69.2378 26.8405C69.133 26.784 68.988 26.7225 68.8028 26.6558C68.6193 26.5873 68.4603 26.5198 68.3258 26.4531C68.193 26.3847 68.0899 26.3017 68.0166 26.2042C67.9449 26.1067 67.9091 25.9802 67.9091 25.8245C67.9091 25.5868 68.007 25.4046 68.2026 25.2781C68.4001 25.1498 68.6586 25.0856 68.9784 25.0856C69.1513 25.0856 69.3129 25.1027 69.4632 25.1369C69.6152 25.1694 69.7567 25.2139 69.8877 25.2704L69.741 25.6116C69.6222 25.562 69.4955 25.5201 69.361 25.4859C69.2264 25.4517 69.0893 25.4345 68.9495 25.4345C68.7486 25.4345 68.594 25.467 68.4857 25.532C68.3791 25.597 68.3258 25.686 68.3258 25.7989C68.3258 25.8861 68.3503 25.9579 68.3992 26.0144C68.4499 26.0708 68.5302 26.1238 68.6403 26.1734C68.7504 26.223 68.8954 26.2812 69.0753 26.3479C69.2553 26.4129 69.4108 26.4804 69.5418 26.5506C69.6728 26.619 69.7733 26.7028 69.8432 26.802C69.9148 26.8995 69.9506 27.0252 69.9506 27.1791ZM71.0854 25.1369V27.9488H70.6503V25.1369H71.0854ZM70.8731 24.0851C70.9447 24.0851 71.0059 24.1082 71.0565 24.1543C71.1089 24.1988 71.1352 24.2689 71.1352 24.3647C71.1352 24.4588 71.1089 24.5289 71.0565 24.5751C71.0059 24.6213 70.9447 24.6444 70.8731 24.6444C70.798 24.6444 70.7351 24.6213 70.6844 24.5751C70.6355 24.5289 70.611 24.4588 70.611 24.3647C70.611 24.2689 70.6355 24.1988 70.6844 24.1543C70.7351 24.1082 70.798 24.0851 70.8731 24.0851ZM74.4844 26.5377C74.4844 26.7686 74.4538 26.9747 74.3926 27.156C74.3315 27.3373 74.2433 27.4904 74.1279 27.6153C74.0126 27.7401 73.8729 27.8359 73.7086 27.9026C73.5462 27.9676 73.3618 28.0001 73.1557 28.0001C72.9635 28.0001 72.787 27.9676 72.6263 27.9026C72.4673 27.8359 72.3293 27.7401 72.2122 27.6153C72.0969 27.4904 72.007 27.3373 71.9423 27.156C71.8794 26.9747 71.848 26.7686 71.848 26.5377C71.848 26.2299 71.9013 25.9682 72.0078 25.7527C72.1144 25.5355 72.2664 25.3704 72.4638 25.2575C72.663 25.1429 72.8997 25.0856 73.174 25.0856C73.4361 25.0856 73.665 25.1429 73.8606 25.2575C74.0581 25.3721 74.2109 25.538 74.3193 25.7552C74.4293 25.9708 74.4844 26.2316 74.4844 26.5377ZM72.2987 26.5377C72.2987 26.7635 72.3293 26.9593 72.3904 27.1253C72.4516 27.2912 72.5459 27.4194 72.6735 27.5101C72.801 27.6007 72.9652 27.6461 73.1662 27.6461C73.3653 27.6461 73.5287 27.6007 73.6562 27.5101C73.7855 27.4194 73.8807 27.2912 73.9419 27.1253C74.003 26.9593 74.0336 26.7635 74.0336 26.5377C74.0336 26.3137 74.003 26.1204 73.9419 25.9579C73.8807 25.7937 73.7864 25.6672 73.6588 25.5782C73.5313 25.4893 73.3662 25.4448 73.1635 25.4448C72.8648 25.4448 72.6455 25.5414 72.5058 25.7347C72.3677 25.928 72.2987 26.1957 72.2987 26.5377ZM76.5966 25.0856C76.9373 25.0856 77.195 25.1677 77.3697 25.3319C77.5444 25.4944 77.6318 25.7561 77.6318 26.117V27.9488H77.202V26.1452C77.202 25.9109 77.1469 25.7356 77.0369 25.6193C76.9286 25.503 76.7617 25.4448 76.5363 25.4448C76.2184 25.4448 75.9947 25.5329 75.8654 25.7091C75.7362 25.8852 75.6715 26.1409 75.6715 26.4762V27.9488H75.2365V25.1369H75.5877L75.6532 25.5423H75.6768C75.7379 25.4431 75.8157 25.3601 75.91 25.2934C76.0043 25.225 76.11 25.1737 76.2271 25.1395C76.3441 25.1036 76.4673 25.0856 76.5966 25.0856Z" fill="#1E5DAA"/>
<path fill-rule="evenodd" clip-rule="evenodd" d="M26.8777 3.35215C24.4375 3.83836 22.1319 5.76258 20.9842 8.27045C20.196 9.99301 19.9319 12.3918 20.3403 14.1171C20.4991 14.7875 20.9616 15.7678 21.3454 16.2476C21.7573 16.7625 22.6263 17.3674 23.302 17.6095C24.271 17.9567 26.3107 17.9227 27.6968 17.5361C31.0512 16.6005 35.0596 13.5078 37.7305 9.79458C38.5008 8.72351 39.5244 7.02349 39.4608 6.92059C39.3993 6.82112 38.6616 6.43478 38.5332 6.43478C38.4844 6.43478 38.1983 6.8097 37.8973 7.26801C35.6427 10.7012 32.5076 13.7052 29.7433 15.081C29.2288 15.3371 28.6602 15.5923 28.4797 15.6482C27.0291 16.0974 25.7638 16.1635 24.8703 15.8369C24.1942 15.5898 23.5378 14.9679 23.2522 14.3041C23.0031 13.725 22.8125 12.4077 22.9534 12.238C23.0059 12.1748 23.4919 12.0928 24.0334 12.056C25.6484 11.946 26.8279 11.6266 28.3538 10.8862C30.1057 10.036 31.1883 9.07598 31.7779 7.84995C32.0639 7.25507 32.0938 7.10213 32.0926 6.23262C32.0911 5.15244 31.9318 4.72274 31.3194 4.14606C30.4078 3.28787 28.7169 2.98563 26.8777 3.35215ZM29.1119 4.60286C29.74 5.04631 29.9082 6.21978 29.5009 7.31542C29.1027 8.38609 27.5001 9.76537 25.9783 10.3471C25.2318 10.6325 23.6836 10.9772 23.1227 10.9827C22.9712 10.9843 23.0527 10.2787 23.3042 9.41077C24.197 6.32996 26.3952 4.15971 28.4043 4.37562C28.6545 4.40251 28.9729 4.50481 29.1119 4.60286Z" fill="#25813F"/>
</svg>
