<svg width="84" height="44" viewBox="0 0 84 44" fill="none" xmlns="http://www.w3.org/2000/svg">
<g clip-path="url(#clip0_1335_1525)">
<path fill-rule="evenodd" clip-rule="evenodd" d="M5.36278 22.332C6.13155 22.332 6.82712 22.6476 7.32656 23.1558L7.84472 22.6464C7.21355 22.0036 6.33472 21.6048 5.36278 21.6048C4.38851 21.6048 3.50791 22.0059 2.87615 22.6511L3.39549 23.1599C3.89493 22.6488 4.59168 22.332 5.36278 22.332ZM5.36278 25.0874L4.52903 24.2706C4.74098 24.054 5.03607 23.9193 5.36278 23.9193C5.68832 23.9193 5.98341 24.0534 6.19478 24.2689L5.36278 25.0874ZM4.19295 23.941L3.74153 23.4989C4.15313 23.078 4.72751 22.8168 5.36278 22.8168C5.99629 22.8168 6.5695 23.0768 6.98111 23.496L6.53086 23.9386C6.23342 23.6359 5.82006 23.4486 5.36278 23.4486C4.90433 23.4486 4.4898 23.6371 4.19295 23.941ZM2.54417 22.3256L2.06816 21.8589C2.90543 21.0041 4.07175 20.4736 5.36278 20.4736C6.6503 20.4736 7.81486 21.0018 8.65155 21.8531L8.17612 22.3203C7.46064 21.592 6.46411 21.1399 5.36278 21.1399C4.25852 21.1399 3.26024 21.5943 2.54417 22.3256" fill="#006DB7"/>
<path fill-rule="evenodd" clip-rule="evenodd" d="M2.25313 25.6323H8.41202C3.99734 36.8048 3.23384 43.3455 7.70298 43.1815C-2.12057 43.7541 -0.848277 34.1993 2.25313 25.6323Z" fill="#006DB7"/>
<path fill-rule="evenodd" clip-rule="evenodd" d="M7.92126 8.51883C13.5351 -0.637255 22.6367 -1.5641 29.1223 1.76038C36.3164 5.46661 38.5512 14.0237 36.7526 21.5445C35.1717 28.4118 30.6481 34.6796 24.8165 38.7126C21.2742 41.1108 17.2671 42.7198 12.9068 43.4282C16.1768 42.4469 19.0938 40.4023 21.3831 37.8952C22.8 36.3688 24.0536 34.6252 25.0349 32.8265C28.3594 28.3574 29.8852 23.9972 29.9941 20.182C30.2125 15.0589 27.9776 9.9902 23.2907 7.64702C19.2027 5.57551 13.6984 5.685 7.92126 8.51883Z" fill="#F16127"/>
<path fill-rule="evenodd" clip-rule="evenodd" d="M3.6701 18.8197C8.24814 9.77248 17.6771 9.11848 23.2358 13.0425C25.4707 14.6228 26.8876 16.8576 27.5416 19.5281C28.3045 22.8526 27.7594 26.341 26.5064 29.6111C25.4162 32.5538 23.6176 35.4971 21.3833 37.8953C18.2222 41.3832 13.6986 44.0536 8.8477 43.9992C6.99458 43.9992 5.14147 43.563 3.3428 42.5278C5.63212 43.618 9.17499 43.2363 11.3548 42.3645C14.9521 40.8925 17.8404 37.8409 19.6391 34.4614C21.8734 30.3195 23.6176 23.67 20.0753 19.8554C16.8597 16.3125 10.4286 15.1134 3.6701 18.8197Z" fill="#00A14B"/>
<path d="M40.3995 21.8628H42.2825C43.2281 21.8628 43.8932 22.1333 44.2785 22.672C44.662 23.2113 44.7609 23.9063 44.5747 24.7582C44.3833 25.6358 43.9682 26.3642 43.3294 26.9427C42.6906 27.5223 41.9921 27.8115 41.2345 27.8115H38.3105L40.3995 21.8628ZM41.2532 22.86L39.8661 26.8191H40.9932C41.5858 26.8191 42.0905 26.6242 42.5079 26.2348C42.9271 25.8437 43.2017 25.3466 43.3335 24.7418C43.4553 24.1855 43.3827 23.7318 43.1151 23.3834C42.8481 23.0344 42.4207 22.86 41.8334 22.86H41.2532ZM46.1849 22.754C46.2218 22.5854 46.3102 22.4425 46.4489 22.3236C46.5889 22.2042 46.7376 22.1451 46.898 22.1451C47.0602 22.1451 47.1843 22.2042 47.2733 22.3236C47.3606 22.4425 47.3863 22.5854 47.3494 22.754C47.3126 22.9238 47.2241 23.0678 47.0848 23.1867C46.9437 23.3061 46.7938 23.3652 46.6316 23.3652C46.4712 23.3652 46.3482 23.3061 46.261 23.1867C46.1737 23.0678 46.148 22.9238 46.1849 22.754M46.9589 23.8512L45.5631 27.8115H44.4401L45.8359 23.8512H46.9589ZM51.4257 23.8512L51.13 24.7242H50.5223C50.5709 24.9321 50.5726 25.1405 50.5264 25.3507C50.438 25.7564 50.2219 26.0995 49.8759 26.3782C49.531 26.6593 49.1171 26.7986 48.6323 26.7986C48.3869 26.7986 48.2084 26.8103 48.0995 26.8349C47.9906 26.8584 47.925 26.9175 47.9051 27.0106C47.894 27.0615 47.9185 27.1066 47.9765 27.1441C48.0362 27.1839 48.2985 27.243 48.764 27.3244C49.2283 27.4046 49.5427 27.5487 49.7055 27.7565C49.8694 27.9626 49.9169 28.2196 49.8501 28.5264C49.6622 29.3871 48.9203 29.8169 47.6246 29.8169C47.0303 29.8169 46.6012 29.7285 46.3377 29.5522C46.0742 29.3766 45.9764 29.1401 46.0414 28.842C46.1263 28.4527 46.5016 28.1558 47.1673 27.9527C46.8582 27.7706 46.7382 27.5264 46.8055 27.2196C46.8857 26.8507 47.1925 26.6066 47.7265 26.4871C47.3483 26.2172 47.2124 25.8361 47.3202 25.3419C47.4074 24.9438 47.6381 24.5966 48.0146 24.2985C48.3899 24.0005 48.8243 23.8512 49.3173 23.8512H51.4257ZM48.716 26.0662C49.127 26.0662 49.394 25.7822 49.5181 25.2143C49.5562 25.0386 49.5392 24.9004 49.469 24.7986C49.3981 24.6984 49.2804 24.6475 49.1182 24.6475C48.7072 24.6475 48.4391 24.9367 48.3126 25.5164C48.2324 25.8829 48.367 26.0662 48.716 26.0662M48.7687 28.6851C48.8091 28.5007 48.6598 28.3713 48.322 28.2969L47.8559 28.1863C47.7487 28.1863 47.5994 28.2243 47.4074 28.2981C47.2142 28.3736 47.0994 28.4919 47.0649 28.65C47.0052 28.9234 47.2528 29.0587 47.8067 29.0587C48.1182 29.0587 48.3483 29.0312 48.4994 28.9744C48.6487 28.9176 48.7388 28.8204 48.7687 28.6851M52.4158 22.754C52.4527 22.5854 52.5405 22.4425 52.6799 22.3236C52.8192 22.2042 52.9679 22.1451 53.1289 22.1451C53.2911 22.1451 53.4152 22.2042 53.5037 22.3236C53.5915 22.4425 53.6172 22.5854 53.5804 22.754C53.5429 22.9238 53.4551 23.0678 53.3151 23.1867C53.1746 23.3061 53.0241 23.3652 52.8625 23.3652C52.7021 23.3652 52.5791 23.3061 52.4913 23.1867C52.4041 23.0678 52.3789 22.9238 52.4158 22.754ZM53.1898 23.8512L51.7934 27.8115H50.6704L52.0668 23.8512H53.1898ZM55.9364 23.0169L55.5962 23.8512H56.4271L56.0869 24.7242H55.259L54.7601 26.0064C54.718 26.1165 54.6864 26.2184 54.6659 26.3132C54.5898 26.6616 54.6635 26.8361 54.8884 26.8361C55.0236 26.8361 55.2566 26.7565 55.5892 26.5978L55.3626 27.6371C54.9949 27.8039 54.6553 27.8883 54.3409 27.8883C53.9773 27.8883 53.7156 27.7665 53.5599 27.5235C53.4024 27.2811 53.3666 26.9673 53.451 26.5802C53.4773 26.4614 53.5136 26.3449 53.5593 26.2319L54.1524 24.7242H53.3895L53.7215 23.8512H54.4844L54.8005 23.0169H55.9364ZM60.8019 23.915L59.4283 27.8115H58.3083L58.4377 27.445C58.022 27.7401 57.6268 27.8883 57.2532 27.8883C56.872 27.8883 56.5916 27.7284 56.4101 27.4117C56.2303 27.0937 56.1929 26.6862 56.3018 26.1897C56.4563 25.4789 56.8193 24.9016 57.389 24.4543C57.9576 24.0064 58.6818 23.7839 59.5613 23.7839C59.9986 23.7839 60.4126 23.8278 60.8019 23.915M58.714 26.6616L59.3768 24.7757C59.2954 24.7669 59.2146 24.7623 59.1374 24.7623C58.6871 24.7623 58.3182 24.9045 58.0272 25.1908C57.7368 25.476 57.5448 25.829 57.4529 26.2494C57.4008 26.4871 57.4089 26.6733 57.4775 26.8086C57.5448 26.9438 57.6648 27.0106 57.8352 27.0106C58.1051 27.0106 58.3979 26.8947 58.714 26.6616M63.6926 21.8628L61.5953 27.8115H60.4752L62.5696 21.8628H63.6926ZM68.3508 21.8628L66.2535 27.8115H65.0486L67.1459 21.8628H68.3508ZM69.9492 23.8512L69.7865 24.2985C70.2812 23.9554 70.7461 23.7839 71.1852 23.7839C71.5149 23.7839 71.745 23.8904 71.8738 24.1053C72.0032 24.319 72.0243 24.62 71.9405 25.0052C71.9159 25.1182 71.8814 25.2377 71.8387 25.3624L70.9791 27.8115H69.8561L70.6876 25.4485C70.7139 25.38 70.7338 25.3115 70.749 25.2435C70.8339 24.8524 70.7607 24.6563 70.5283 24.6563C70.2607 24.6563 69.9006 24.8594 69.4498 25.2652L68.5534 27.8115H67.4298L68.8292 23.8512H69.9492ZM77.6164 21.8628L75.5431 27.7606C75.0454 27.8449 74.604 27.8883 74.2158 27.8883C73.5489 27.8883 73.0559 27.7173 72.7362 27.3724C72.4183 27.0293 72.3223 26.5691 72.4487 25.9889C72.5817 25.3782 72.9072 24.8583 73.4248 24.4279C73.9412 23.9982 74.5566 23.7839 75.2714 23.7839C75.3862 23.7839 75.566 23.7973 75.8089 23.8266L76.4981 21.8628H77.6164ZM74.7269 26.887L75.4512 24.8308C75.3575 24.8161 75.265 24.8103 75.1719 24.8103C74.7714 24.8103 74.4301 24.9233 74.1449 25.1516C73.8592 25.3817 73.6806 25.6622 73.6069 25.9977C73.5448 26.284 73.5852 26.5106 73.7281 26.6792C73.8715 26.8466 74.0981 26.931 74.4096 26.931C74.4904 26.931 74.5958 26.9163 74.7269 26.887M78.2546 22.754C78.2909 22.5854 78.3793 22.4425 78.5186 22.3236C78.658 22.2042 78.8067 22.1451 78.9671 22.1451C79.1293 22.1451 79.2535 22.2042 79.3424 22.3236C79.4303 22.4425 79.4554 22.5854 79.4186 22.754C79.3817 22.9238 79.2933 23.0678 79.1539 23.1867C79.0128 23.3061 78.8629 23.3652 78.7007 23.3652C78.5403 23.3652 78.4174 23.3061 78.3301 23.1867C78.2429 23.0678 78.2171 22.9238 78.2546 22.754ZM79.0286 23.8512L77.6322 27.8115H76.5092L77.9056 23.8512H79.0286ZM83.6072 23.915L82.2331 27.8115H81.113L81.243 27.445C80.8267 27.7401 80.4315 27.8883 80.0573 27.8883C79.6768 27.8883 79.3963 27.7284 79.2148 27.4117C79.0351 27.0937 78.9976 26.6862 79.1065 26.1897C79.2616 25.4789 79.6241 24.9016 80.1944 24.4543C80.7623 24.0064 81.4866 23.7839 82.366 23.7839C82.8034 23.7839 83.2179 23.8278 83.6072 23.915M81.5193 26.6616L82.1815 24.7757C82.1002 24.7669 82.0194 24.7623 81.9421 24.7623C81.4918 24.7623 81.123 24.9045 80.832 25.1908C80.5416 25.476 80.3495 25.829 80.2576 26.2494C80.2055 26.4871 80.2137 26.6733 80.2828 26.8086C80.3501 26.9438 80.4695 27.0106 80.6399 27.0106C80.9098 27.0106 81.2026 26.8947 81.5193 26.6616Z" fill="#5C6266"/>
<path fill-rule="evenodd" clip-rule="evenodd" d="M38.7842 32.2348V33.7495H38.4025V30.1616H39.3493C39.6795 30.1616 40.0249 30.2242 40.2896 30.435C40.5331 30.6288 40.6374 30.8928 40.6374 31.2008C40.6374 31.5082 40.532 31.7705 40.2896 31.9637C40.0249 32.1728 39.6783 32.2348 39.3493 32.2348H38.7842ZM38.7842 31.8753H39.4277C39.6361 31.8753 39.8598 31.8367 40.0226 31.6967C40.1725 31.5697 40.2269 31.394 40.2269 31.2008C40.2269 31.0058 40.1725 30.8302 40.0226 30.7002C39.8592 30.5609 39.6361 30.5216 39.4277 30.5216H38.7842V31.8753Z" fill="#5C6266"/>
<path fill-rule="evenodd" clip-rule="evenodd" d="M42.1742 33.761C41.8224 33.761 41.5115 33.6503 41.2644 33.3968C41.0138 33.1398 40.9101 32.8201 40.9101 32.4653C40.9101 32.1093 41.0138 31.7878 41.2644 31.5308C41.5109 31.2761 41.8218 31.1649 42.1742 31.1649C42.5267 31.1649 42.837 31.2761 43.0841 31.5308C43.3341 31.7878 43.4383 32.1093 43.4383 32.4653C43.4383 32.8201 43.3341 33.1398 43.0841 33.3968C42.837 33.6503 42.5261 33.761 42.1742 33.761ZM42.1742 33.4068C42.4248 33.4068 42.6327 33.3137 42.8048 33.1327C42.9834 32.9454 43.0683 32.7235 43.0683 32.4653C43.0683 32.2065 42.984 31.9822 42.8048 31.7943C42.6327 31.6128 42.4248 31.5191 42.1742 31.5191C41.9236 31.5191 41.7158 31.6128 41.5431 31.7943C41.3645 31.9822 41.2802 32.2065 41.2802 32.4653C41.2802 32.7235 41.3645 32.9454 41.5431 33.1327C41.7158 33.3137 41.9236 33.4068 42.1742 33.4068Z" fill="#5C6266"/>
<path fill-rule="evenodd" clip-rule="evenodd" d="M44.9448 33.1146L45.6573 31.1146H45.8892L46.6082 33.11L47.3594 31.1514H47.7189L46.7072 33.7534H46.477L45.7645 31.8008L45.0537 33.7534H44.8236L43.8118 31.1514H44.1936L44.9448 33.1146Z" fill="#5C6266"/>
<path fill-rule="evenodd" clip-rule="evenodd" d="M48.3823 32.4568C48.3823 32.715 48.4736 32.9328 48.6563 33.1143C48.8401 33.2976 49.0597 33.3871 49.3185 33.3871C49.4701 33.3871 49.62 33.3637 49.7629 33.3104C49.9134 33.2548 50.0515 33.1664 50.1762 33.0657L50.2647 32.9943V33.3977L50.2453 33.4141C50.1113 33.5253 49.9625 33.6196 49.7986 33.6805C49.6411 33.739 49.476 33.7654 49.3079 33.7654C48.9502 33.7654 48.6311 33.6565 48.3764 33.4018C48.1217 33.1465 48.0128 32.828 48.0128 32.4697C48.0128 32.126 48.0989 31.8004 48.3261 31.5375C48.538 31.2899 48.812 31.1693 49.1376 31.1693C49.4613 31.1693 49.7582 31.2629 49.9725 31.5135C50.1862 31.7571 50.2547 32.0856 50.2623 32.4012L50.2635 32.4568H48.3823ZM49.8612 32.1459C49.8331 32.0089 49.781 31.8789 49.6903 31.77C49.5486 31.5961 49.3595 31.5235 49.1376 31.5235C48.9168 31.5235 48.7441 31.6236 48.6053 31.7922C48.5204 31.8982 48.4601 32.0165 48.4221 32.1459H49.8612Z" fill="#5C6266"/>
<path fill-rule="evenodd" clip-rule="evenodd" d="M51.4284 31.53C51.6655 31.1582 52.0935 30.9808 52.5086 31.2162C52.518 31.2215 52.5273 31.2267 52.5367 31.232V31.2636V31.5359V31.65C52.5069 31.626 52.5309 31.6612 52.501 31.6372C51.9079 31.3087 51.5496 31.7818 51.4284 32.1009V33.7415H51.0659V33.687V31.1887V31.1342H51.1204H51.2474H51.3739H51.4284V31.53Z" fill="#5C6266"/>
<path fill-rule="evenodd" clip-rule="evenodd" d="M55.1896 30.5298H54.0291V30.2031H56.7329V30.5298H55.5778V33.719H55.1896V30.5298Z" fill="#5C6266"/>
<path fill-rule="evenodd" clip-rule="evenodd" d="M61.4813 30.5855V31.7343H62.9439V32.0762H61.4813V33.3631H63.2132V33.7051H61.0937V30.2436H63.1518V30.5855H61.4813Z" fill="#5C6266"/>
<path fill-rule="evenodd" clip-rule="evenodd" d="M64.272 31.4724C64.4582 31.261 64.6965 31.134 64.9951 31.134C65.2609 31.134 65.4939 31.2177 65.6749 31.408C65.734 31.4718 65.7832 31.5427 65.8224 31.6182L65.8798 31.5345C66.0718 31.2862 66.3253 31.134 66.6521 31.134C66.9185 31.134 67.1515 31.2171 67.3324 31.4074C67.5198 31.6053 67.5894 31.8559 67.5894 32.1194V33.675H67.2124V32.1393C67.2124 31.9654 67.1685 31.7991 67.0449 31.6679C66.9284 31.5444 66.7797 31.4935 66.607 31.4935C66.3775 31.4935 66.1971 31.6205 66.0548 31.785C66.008 31.836 65.967 31.8922 65.9307 31.9502V33.675H65.5537V32.1393C65.5537 31.9654 65.5103 31.7991 65.3862 31.6679C65.2703 31.5444 65.121 31.4935 64.9494 31.4935C64.7193 31.4935 64.5378 31.6211 64.3955 31.785C64.3493 31.836 64.3083 31.8922 64.272 31.9502V33.675H63.8949V31.1884H64.272V31.4724Z" fill="#5C6266"/>
<path d="M69.9382 31.633C69.6197 31.4275 69.1665 31.4784 68.7912 31.9778V32.9896C69.1806 33.4047 69.6782 33.4451 70.002 33.2045C70.4944 32.8397 70.4675 31.9737 69.9382 31.633ZM68.4024 31.188H68.7801C68.7807 31.2916 68.7807 31.3958 68.7812 31.4995C68.855 31.3572 68.9944 31.2711 69.1402 31.2184C69.5904 31.0562 70.1367 31.1195 70.4792 31.4755C70.9476 32.0153 70.9242 32.883 70.4927 33.3666C70.0418 33.8713 69.3621 33.7478 68.824 33.4679C68.8093 33.4603 68.7947 33.4521 68.7801 33.4451V34.6594H68.4024V31.188Z" fill="#5C6266"/>
<path fill-rule="evenodd" clip-rule="evenodd" d="M37.5383 28.4139H44.7154V28.8267H37.5383V28.4139Z" fill="#5C6266"/>
<path fill-rule="evenodd" clip-rule="evenodd" d="M50.4984 28.4139H83.1583V28.8267H50.4984V28.4139Z" fill="#5C6266"/>
<path fill-rule="evenodd" clip-rule="evenodd" d="M57.7642 33.697C57.4123 33.697 57.1014 33.5864 56.8543 33.3328C56.6037 33.0758 56.5001 32.7561 56.5001 32.4013C56.5001 32.0453 56.6037 31.7233 56.8543 31.4668C57.1008 31.2122 57.4117 31.1009 57.7642 31.1009C58.1167 31.1009 58.427 31.2122 58.6741 31.4668C58.9241 31.7233 59.0283 32.0453 59.0283 32.4013C59.0283 32.7561 58.9241 33.0758 58.6741 33.3328C58.427 33.5864 58.1161 33.697 57.7642 33.697ZM57.7642 33.3428C58.0148 33.3428 58.2226 33.2497 58.3948 33.0682C58.5734 32.8814 58.6583 32.6595 58.6583 32.4013C58.6583 32.1425 58.5739 31.9177 58.3948 31.7303C58.2226 31.5488 58.0148 31.4551 57.7642 31.4551C57.5136 31.4551 57.3057 31.5488 57.133 31.7303C56.9544 31.9177 56.8701 32.1425 56.8701 32.4013C56.8701 32.6595 56.9544 32.8814 57.133 33.0682C57.3057 33.2497 57.5136 33.3428 57.7642 33.3428Z" fill="#5C6266"/>
<path fill-rule="evenodd" clip-rule="evenodd" d="M72.5539 33.697C72.202 33.697 71.8911 33.5864 71.644 33.3328C71.3934 33.0758 71.2898 32.7561 71.2898 32.4013C71.2898 32.0453 71.3934 31.7233 71.644 31.4668C71.8905 31.2122 72.2014 31.1009 72.5539 31.1009C72.9063 31.1009 73.2167 31.2122 73.4637 31.4668C73.7137 31.7233 73.818 32.0453 73.818 32.4013C73.818 32.7561 73.7137 33.0758 73.4637 33.3328C73.2167 33.5864 72.9058 33.697 72.5539 33.697ZM72.5539 33.3428C72.8045 33.3428 73.0123 33.2497 73.1844 33.0682C73.363 32.8814 73.4479 32.6595 73.4479 32.4013C73.4479 32.1425 73.3636 31.9177 73.1844 31.7303C73.0123 31.5488 72.8045 31.4551 72.5539 31.4551C72.3033 31.4551 72.0954 31.5488 71.9227 31.7303C71.7441 31.9177 71.6598 32.1425 71.6598 32.4013C71.6598 32.6595 71.7441 32.8814 71.9227 33.0682C72.0954 33.2497 72.3033 33.3428 72.5539 33.3428Z" fill="#5C6266"/>
<path fill-rule="evenodd" clip-rule="evenodd" d="M75.3243 33.1388L76.0369 31.1387H76.2687L76.9877 33.1341L77.7389 31.1756H78.0984L77.0867 33.7776H76.8566L76.144 31.8249L75.4332 33.7776H75.2031L74.1914 31.1756H74.5731L75.3243 33.1388Z" fill="#5C6266"/>
<path fill-rule="evenodd" clip-rule="evenodd" d="M78.7619 32.4568C78.7619 32.715 78.8532 32.9328 79.0359 33.1143C79.2197 33.2976 79.4393 33.3871 79.6981 33.3871C79.8497 33.3871 79.9996 33.3637 80.1425 33.3104C80.293 33.2548 80.4311 33.1664 80.5559 33.0657L80.6443 32.9943V33.3977L80.6249 33.4141C80.4909 33.5253 80.3421 33.6196 80.1782 33.6805C80.0207 33.739 79.8556 33.7654 79.6876 33.7654C79.3298 33.7654 79.0107 33.6565 78.756 33.4018C78.5013 33.1465 78.3924 32.828 78.3924 32.4697C78.3924 32.126 78.4785 31.8004 78.7057 31.5375C78.9176 31.2899 79.1916 31.1693 79.5172 31.1693C79.841 31.1693 80.1378 31.2629 80.3521 31.5135C80.5658 31.7571 80.6343 32.0856 80.6419 32.4012L80.6431 32.4568H78.7619ZM80.2409 32.1459C80.2128 32.0089 80.1606 31.8789 80.0699 31.77C79.9282 31.5961 79.7391 31.5235 79.5172 31.5235C79.2964 31.5235 79.1237 31.6236 78.9855 31.7922C78.9001 31.8982 78.8397 32.0165 78.8017 32.1459H80.2409Z" fill="#5C6266"/>
<path fill-rule="evenodd" clip-rule="evenodd" d="M81.8079 31.5076C82.045 31.1358 82.473 30.9584 82.8881 31.1937C82.8975 31.199 82.9069 31.2043 82.9157 31.2095V31.2411V31.5134V31.6276C82.8864 31.6036 82.9104 31.6387 82.8805 31.6147C82.2874 31.2862 81.9291 31.7593 81.8079 32.0778V33.719H81.4455V33.6645V31.1662V31.1118H81.4999H81.627H81.7534H81.8079V31.5076Z" fill="#5C6266"/>
</g>
<defs>
<clipPath id="clip0_1335_1525">
<rect width="83.6068" height="44" fill="white"/>
</clipPath>
</defs>
</svg>
