<svg width="48" height="36" viewBox="0 0 48 36" fill="none" xmlns="http://www.w3.org/2000/svg">
<path d="M3.21613 9.83815V4.45733C3.21613 4.20994 3.27797 3.9007 3.33982 3.6533C3.52537 2.97297 4.14385 2.54003 4.82419 2.47818C5.81376 2.47818 6.30855 3.34406 6.30855 4.64288V9.83815H9.46282V4.39548C9.46282 4.14809 9.52467 3.83885 9.58652 3.59145C9.77206 2.91112 10.3905 2.47818 11.0709 2.47818C12.1223 2.47818 12.6171 3.34406 12.6171 4.82842V9.83815H15.7095V4.39548C15.7095 1.36491 14.2252 0.00424047 12.246 0.00424047C11.5657 0.00424047 10.8853 0.189786 10.2669 0.499028C9.77207 0.808271 9.27728 1.24121 8.90619 1.736H8.84434C8.34955 0.622725 7.23628 -0.057608 5.99931 0.00424047C4.76234 -0.057608 3.58722 0.560877 2.84503 1.6123H2.78318L2.72134 0.251634H0C0.0618485 1.11751 0.0618523 2.23079 0.0618523 3.46776V9.83815H3.21613Z" fill="#8EC750"/>
<path d="M19.2349 9.83798C19.2349 9.83798 19.2967 12.1264 17.6268 13.0541C16.8847 13.487 16.0806 13.7344 15.2147 13.7344L15.1529 13.8581C18.1216 14.4766 19.4204 14.2292 20.6574 12.9304C21.7088 11.8171 22.3273 10.3328 23.8117 6.31262L26.2238 0.127767H22.7603L21.4614 5.07565C21.3377 5.63228 21.1522 5.94153 20.9667 6.43631H20.9048C20.7811 5.87968 20.5956 5.63228 20.41 5.07565L18.8638 0.065918H15.2766L19.1112 8.91025C19.173 9.0958 19.2349 9.2195 19.2349 9.40504C19.2349 9.59059 19.173 9.71428 19.0494 9.83798C18.7401 10.3328 18.3072 10.7657 17.8124 11.0131C18.4309 10.8276 18.9257 10.3946 19.2349 9.83798Z" fill="#418CCA"/>
<path d="M18.8638 16.6415H13.5448V19.301H15.7713V22.3934C15.2766 22.5789 14.7199 22.6408 14.1633 22.5789C11.5038 22.5789 9.64835 20.909 9.64835 18.1258C9.64835 15.1571 11.6894 13.7346 14.3488 13.7346H15.1529C16.0187 13.7346 16.8228 13.4872 17.565 13.0543C19.173 12.1265 19.173 9.83813 19.173 9.83813C18.8638 10.3948 18.369 10.8277 17.8124 11.0751C16.8846 11.508 15.6477 11.1988 14.4107 11.1988C9.7102 11.1988 6.30853 13.7964 6.24668 18.3114C6.18483 20.1668 6.92701 21.9604 8.28768 23.2593C9.5865 24.4962 11.5038 25.1147 14.1014 25.1147C15.7095 25.1147 17.3176 24.8055 18.8638 24.3725V16.6415Z" fill="#28B898"/>
<path d="M20.1626 18.2495C20.1626 22.146 22.6365 25.1766 26.8422 25.1766C31.0479 25.1766 33.8311 22.4552 33.8311 18.0021C33.8311 14.2294 31.419 11.137 27.0896 11.137C22.8839 11.137 20.1626 14.1675 20.1626 18.2495ZM27.0278 13.5491C29.2543 13.5491 30.4913 15.6519 30.4913 18.064C30.4913 20.7235 29.2543 22.7026 27.0896 22.7026C24.9249 22.7026 23.6261 20.8472 23.6261 18.1877C23.6261 15.5282 24.8631 13.5491 27.0278 13.5491Z" fill="#C1569A"/>
<path d="M41.6859 24.9291L46.5101 11.3843H43.1084L41.3148 17.198C40.82 18.7443 40.3871 20.3523 40.016 22.0222H39.9541C39.583 20.3523 39.1501 18.8061 38.6553 17.198L36.9236 11.4461H33.3982L37.975 24.9909H41.6859V24.9291Z" fill="#EC7026"/>
<path d="M5.2571 29.0112H0.247375V29.5679H1.91729V31.9181H1.4225L1.2988 31.98H1.23695L1.11326 32.1037L1.05141 32.2892C1.05141 32.4129 1.11325 32.5366 1.1751 32.6603C1.2988 32.8458 1.4225 33.0314 1.60805 33.1551L2.04098 33.6499C2.10283 33.7117 2.22653 33.7736 2.35023 33.7736H2.53577L2.65947 33.7117V33.6499V32.5366H5.07156V35.8764H5.75189V29.5679H5.99929V29.0112H5.2571ZM5.07156 31.9181H2.65947V29.5679H5.07156V31.9181Z" fill="#13679F"/>
<path d="M2.53579 25.6094L2.10284 26.1042L4.82418 29.011H5.25712L2.53579 25.6094Z" fill="#13679F"/>
<path d="M9.46284 29.0112H5.99933V29.5679H9.64839V31.2378L9.58654 31.6089C9.52469 31.7326 9.46285 31.7944 9.401 31.9181C9.21545 32.1037 8.96806 32.1655 8.72066 32.1037C8.41142 32.1655 8.10218 32.0418 7.97848 31.7944L7.42184 30.8667L6.86521 31.2996L7.1126 31.7944L7.2363 32.0418L7.79294 32.9077L8.22587 33.5262C8.59697 34.1447 9.0299 34.7013 9.52469 35.2579C9.71024 35.5672 9.95763 35.8146 10.2669 36.0001L10.7617 35.5672L10.4524 35.2579L10.2669 34.8868L9.77209 34.392L9.401 33.8973L8.47327 32.5366L8.72066 32.5984H8.96805C9.1536 32.5984 9.33915 32.5984 9.52469 32.4747L9.77209 32.3511C9.83394 32.2892 9.89579 32.2892 9.95763 32.2274C10.2669 31.98 10.3906 31.6707 10.3906 31.2996V29.5679H11.0709V29.0112H9.46284Z" fill="#13679F"/>
<path d="M12.3079 28.1452L11.9368 27.5268C11.6894 27.0938 11.3183 26.7227 10.8853 26.4753C10.6379 26.2279 10.2669 26.1042 9.89576 26.1042C9.71022 26.1042 9.46282 26.1661 9.27728 26.2279C8.90618 26.4135 8.59695 26.7846 8.47325 27.2175C8.4114 27.2794 8.34955 27.4031 8.34955 27.5268C8.34955 27.6505 8.34955 27.7742 8.34955 27.8979L8.4114 28.2071L8.5351 28.5163L8.65879 28.7637L8.78249 28.9493H9.58652L9.46282 28.8256L9.27728 28.5163L9.09173 28.0834L9.02989 27.7123L9.09173 27.2794C9.15358 26.8464 9.52467 26.599 9.95761 26.5372C10.3906 26.6609 10.8235 26.9083 11.0709 27.2794C11.3801 27.6505 11.6894 28.0216 11.9368 28.3926C12.1223 28.64 12.1842 28.8256 12.1223 28.8874H11.1327V29.4441H12.3079V35.8145H12.9882V29.5678H14.1015V29.0111H12.8645L12.3079 28.1452Z" fill="#13679F"/>
<path d="M18.4927 29.0112V29.5679H21.6469V31.8563L21.5233 32.0418C21.4614 32.1037 21.3996 32.1655 21.3377 32.1655L21.0285 32.2274C20.6574 32.2892 20.3481 32.1037 20.2244 31.7326L19.8533 30.9904L19.2967 31.3615L19.5441 31.7944L19.7915 32.2274L20.1626 32.8458L21.7706 35.1961C21.9562 35.5053 22.1417 35.6909 22.451 35.8764L23.0076 35.4435L22.6984 35.1961L22.0799 34.4539L21.7088 33.9591L20.9048 32.7221C20.9666 32.7221 21.0285 32.784 21.0903 32.784H21.2759H21.3996H21.5233H21.6469C21.8325 32.7221 21.9562 32.6603 22.0799 32.5984C22.2036 32.5366 22.3273 32.4129 22.3891 32.2274C22.451 32.1037 22.451 31.9181 22.5128 31.7944V29.506H24.9868V31.7944H22.451L22.9458 32.3511H24.8631V35.8146H25.5434V29.5679H26.0382V29.0112H18.4927Z" fill="#13679F"/>
<path d="M26.5948 29.0112H26.0382V29.5679H29.6873V31.2378L29.6254 31.6089C29.5636 31.7326 29.5017 31.7944 29.4399 31.9181C29.2543 32.1037 29.0069 32.1655 28.7595 32.1037C28.4503 32.1655 28.1411 32.0418 28.0174 31.7944L27.4607 30.8667L26.9041 31.2996L27.2133 31.7944L27.337 32.0418L27.8937 32.9077L28.3266 33.5262C28.6977 34.1447 29.1306 34.7013 29.6254 35.2579C29.811 35.5672 30.0584 35.8146 30.3676 36.0001L30.8624 35.5672L30.5531 35.2579L30.3676 35.0105L29.8728 34.5157L29.5017 34.021L28.574 32.6603L28.8214 32.7221H29.0688C29.2543 32.7221 29.4399 32.7221 29.6254 32.5984L29.8728 32.4747C29.9347 32.4129 29.9965 32.4129 30.0584 32.3511C30.3676 32.1037 30.4913 31.7944 30.4913 31.4233V29.6916H31.1716V29.1349L26.5948 29.0112Z" fill="#13679F"/>
<path d="M31.4191 29.0111H31.048V29.5677H35.0681V32.9075C35.0063 33.2168 34.8207 33.4642 34.6352 33.5879C34.3878 33.7734 34.1404 33.8971 33.8312 33.8971C33.6456 33.8971 33.5219 33.8352 33.3364 33.7734C32.9034 33.5879 32.5942 33.0931 32.656 32.5983V32.4127L32.7179 32.1035C32.8416 31.7942 33.0271 31.5469 33.3364 31.3613C33.5219 31.2995 33.6456 31.2376 33.8312 31.2376H34.0167C34.0167 31.2376 34.0786 31.2376 34.1404 31.2376L34.2641 31.2995L34.3259 31.3613L34.4496 31.4232V30.8665L34.0786 30.7428L33.7075 30.681C33.4601 30.681 33.2127 30.7428 33.0271 30.8047C32.5942 30.9902 32.2231 31.2995 32.0375 31.7324C31.9139 31.9798 31.852 32.2272 31.852 32.4746C31.852 32.722 31.9139 32.9694 32.0375 33.2168C32.3468 33.9589 33.0271 34.3919 33.8312 34.33C34.3259 34.33 34.7589 34.1445 35.0681 33.8353V35.8144H35.7485V33.0312C35.7485 32.6601 35.8722 32.289 36.1195 31.9798C36.3669 31.6087 36.738 31.4232 37.1091 31.3613C37.2328 31.3613 37.4184 31.3613 37.5421 31.4232C37.6658 31.485 37.7895 31.5469 37.9132 31.6706C38.0987 31.9179 38.1605 32.1653 38.1605 32.4746C38.0987 32.9694 37.9132 33.4642 37.5421 33.8353L37.1091 34.33C37.0473 34.3919 36.9854 34.4537 36.9236 34.4537L37.4802 34.8867L37.9132 34.4537L38.1605 34.0826C38.5935 33.6497 38.779 33.0312 38.8409 32.4746C38.8409 31.9798 38.6553 31.5469 38.3461 31.2376C37.975 30.8665 37.5421 30.681 37.0473 30.7428H36.8617H36.6762C36.5525 30.7428 36.4906 30.8047 36.3669 30.8665L36.0577 31.0521L35.934 31.1758L35.6866 31.4232V29.5059H39.1501V28.9492L31.4191 29.0111Z" fill="#13679F"/>
<path d="M39.583 29.0112H39.2119V29.5679H39.583H40.5107V35.8764H41.1911V29.5679H41.7477V29.0112H39.583Z" fill="#13679F"/>
<path d="M44.7164 32.5984C44.902 32.5984 45.0875 32.5984 45.2731 32.4747L45.5205 32.3511C45.5823 32.2892 45.6442 32.2892 45.7679 32.2274C46.0771 31.98 46.2008 31.6707 46.2008 31.2996V29.5679H47.2522V29.0112H41.8096V29.5679H45.4586V31.2378L45.3968 31.6089C45.3349 31.7326 45.2731 31.7944 45.2112 31.9181C45.0257 32.1037 44.7783 32.1655 44.5309 32.1037C44.2217 32.1655 43.9124 32.0418 43.7887 31.7944L43.2321 30.8667L42.6754 31.2996L42.9228 31.7944L43.0465 32.0418L43.6032 32.9077L44.0361 33.5262C44.4072 34.1447 44.8401 34.7013 45.3349 35.2579C45.5205 35.5672 45.7679 35.8146 46.0771 36.0001L46.5719 35.5672L46.2627 35.2579L46.0771 35.0105L45.5823 34.5157L45.2112 34.021L44.2835 32.6603L44.5309 32.7221L44.7164 32.5984Z" fill="#13679F"/>
</svg>
