<svg width="58" height="36" viewBox="0 0 58 36" fill="none" xmlns="http://www.w3.org/2000/svg">
<g clip-path="url(#clip0_1335_1698)">
<path d="M6.35906 0.152822C6.76519 -0.0866521 7.2584 -0.00482521 7.6848 0.128049C7.9558 0.402807 8.33341 0.569463 8.5346 0.910283C8.79134 1.3059 8.82062 1.80287 8.74404 2.2563C8.63444 2.86136 8.05565 3.24722 7.50613 3.41763C6.55349 3.63309 5.54604 2.87337 5.39365 1.92749C5.36362 1.69927 5.38314 1.46881 5.40416 1.24059C5.59409 0.793173 5.93791 0.398303 6.35906 0.152822Z" fill="#704D93"/>
<path d="M49.9397 5.44671C50.8743 5.41293 51.8329 5.45572 52.724 5.76351C53.0326 6.021 53.4342 6.1231 53.754 6.36257C54.4176 6.82951 55.0017 7.5134 55.1045 8.34443C55.1691 8.83389 55.3072 9.31434 55.3087 9.8113C55.3102 11.3127 55.2884 12.8141 55.3049 14.3155C55.3049 14.576 55.3447 14.8335 55.3958 15.088C55.404 15.1323 55.4213 15.2216 55.4296 15.2659C55.9986 15.2457 56.5676 15.1969 57.1382 15.2149C57.1982 16.0894 57.2072 16.967 57.1795 17.8431C55.7404 17.8694 54.3013 17.8889 52.8637 17.9474C52.4673 17.9865 52.5919 17.2898 52.188 17.3371C51.7947 17.3784 51.3713 17.4895 51.134 17.8311C50.7459 17.9482 50.3345 17.9579 49.9329 17.988C49.3549 17.9962 48.7701 18.024 48.1995 17.9091C47.5855 17.8033 47.0224 17.4933 46.5562 17.0871C46.1816 16.7628 45.7763 16.449 45.539 16.0039C45.3026 15.5685 45.1344 15.0888 45.0646 14.5978L45.0583 14.5246C45.0534 14.43 45.0448 14.3671 45.044 14.2787C45.0433 14.199 45.044 14.2787 45.0382 14.0974C45.0211 13.8978 45.1036 13.6669 45.1216 13.4905C45.3551 12.149 46.3175 10.9674 47.5757 10.4509C48.2003 10.1867 48.8827 10.1153 49.5508 10.044C50.5312 9.9622 51.4966 10.2332 52.4755 10.2024C52.5063 9.69495 52.4463 9.18822 52.3704 8.68675C52.3412 8.55012 52.3307 8.38272 52.1865 8.31515C51.6257 7.98559 50.9606 7.84671 50.3135 7.90677C49.2858 7.94505 48.3627 8.41908 47.3605 8.58874C47.2727 8.32674 47.1461 8.03523 47.0875 7.76497C46.9903 7.47079 46.9018 7.21504 46.8036 6.93198C46.74 6.75093 46.639 6.61406 46.617 6.43389C47.0352 6.20267 47.5096 6.11334 47.9556 5.95344C48.6004 5.72973 49.2468 5.46022 49.9397 5.44671ZM49.4224 12.6099C48.9262 12.7323 48.5238 13.0896 48.219 13.486C47.9961 13.7765 47.8662 14.1932 48.0456 14.537C48.2588 14.9424 48.6394 15.2637 49.0726 15.4123C49.9907 15.5895 50.9006 15.2321 51.6978 14.8057C52.1287 14.5422 52.5626 14.1083 52.4981 13.5588C52.5228 13.2375 52.1843 13.0979 51.9591 12.9553C51.2053 12.4883 50.2707 12.5026 49.4224 12.6099Z" fill="#704D93"/>
<path d="M7.68481 0.12793C8.17802 0.303594 8.62019 0.668437 8.81012 1.1654C9.03533 1.68714 8.96101 2.31098 8.66523 2.78918C8.2073 3.39124 7.37026 3.73581 6.63232 3.49559C5.74574 3.20807 5.02957 2.16534 5.40417 1.24047C5.38315 1.46869 5.36363 1.69915 5.39366 1.92737C5.54605 2.87325 6.5535 3.63297 7.50614 3.41751C8.05566 3.2471 8.63445 2.86124 8.74405 2.25618C8.82062 1.80275 8.79135 1.30578 8.53461 0.910163C8.33342 0.569343 7.95581 0.402687 7.68481 0.12793Z" fill="#704D93"/>
<path d="M52.7241 5.76343C53.6181 6.02017 54.4034 6.61323 54.9011 7.39696C55.314 8.07259 55.3388 8.88711 55.3695 9.65433C55.3966 11.4658 55.314 13.2772 55.3958 15.0879C55.3448 14.8334 55.305 14.5759 55.305 14.3154C55.2885 12.814 55.3102 11.3126 55.3087 9.81122C55.3072 9.31426 55.1691 8.83381 55.1045 8.34435C55.0017 7.51332 54.4177 6.82943 53.754 6.36249C53.4342 6.12302 53.0326 6.02092 52.7241 5.76343Z" fill="#704D93"/>
<path d="M9.09389 19.1981C10.0375 19.1583 11.0082 19.141 11.9158 19.4398C12.367 19.5794 12.7265 19.9705 13.2228 19.9675C13.6762 20.0396 13.6739 19.3167 14.1116 19.3287C15.2782 19.2221 16.4523 19.2671 17.6211 19.1906C17.4275 19.5869 16.9733 19.7198 16.67 20.0111C16.1272 20.4563 15.7519 21.0741 15.5349 21.7362C15.4921 21.8826 15.4756 22.0357 15.4831 22.1881C15.5702 23.6415 15.5537 25.0979 15.5529 26.5535C15.5379 27.8777 15.574 29.2072 15.4201 30.5262C15.3345 31.5464 15.2084 32.5831 14.8113 33.5358C14.4945 34.2947 13.8263 34.8345 13.1357 35.2436C11.8572 35.9763 10.298 36.1662 8.86418 35.8584C7.76289 35.6437 6.6984 35.1047 5.96421 34.2422C5.6369 33.8285 5.33286 33.3834 5.15795 32.8819C6.07381 33.2693 7.04897 33.5155 8.0399 33.5988C8.88745 33.6589 9.73124 33.4952 10.5367 33.2467C11.1275 33.0471 11.7206 32.7655 12.114 32.2641C12.7821 31.4796 12.9758 30.4294 13.0486 29.4317C12.6012 29.6141 12.1883 29.8731 11.7296 30.0285C11.2206 30.2184 10.6884 30.3505 10.1449 30.3851C9.43546 30.4346 8.7268 30.2815 8.05717 30.0578C7.41532 29.831 6.78923 29.5203 6.28776 29.0526C5.38391 28.2005 4.73455 27.0497 4.59868 25.805C4.56414 25.1752 4.55438 24.5438 4.59567 23.914C4.75332 22.4854 5.49577 21.1394 6.59855 20.2228C7.31998 19.671 8.17353 19.2461 9.09389 19.1981ZM9.35213 21.4877C8.95201 21.5838 8.5699 21.7617 8.25986 22.0357C7.5557 22.6093 7.1871 23.4928 7.02345 24.3667C6.92436 24.8621 7.05348 25.3621 7.19236 25.8358C7.37628 26.4439 7.71034 27.0279 8.23433 27.404C8.63371 27.681 9.07512 27.9092 9.55107 28.0173C9.94744 28.1007 10.3603 28.0414 10.7334 27.8912C11.7987 27.5346 12.6612 26.6165 12.9548 25.5333C13.0966 24.7585 12.9375 23.9553 12.6312 23.2384C12.2881 22.5462 11.7356 21.9239 11.0022 21.6394C10.4879 21.4104 9.89865 21.3428 9.35213 21.4877Z" fill="#2D2F37"/>
<path d="M50.0215 19.3475C50.3218 19.2109 50.6551 19.1898 50.9772 19.141C51.4734 19.066 51.9779 19.0442 52.4778 19.0967C53.0116 19.147 53.5754 19.2078 54.025 19.5291C54.7247 20.0149 55.3042 20.7393 55.4709 21.5891C55.5437 22.3916 55.5039 23.1993 55.4934 24.0041C55.4859 25.1031 55.4596 26.2029 55.4769 27.3027C55.4889 27.6285 55.4521 27.9693 55.5955 28.2741C55.9498 29.1239 56.6863 29.7207 57.2013 30.4639C56.2787 30.4489 55.356 30.4579 54.4334 30.4541C54.257 30.4444 54.0483 30.4354 53.9282 30.2875C53.7105 30.054 53.5468 29.7763 53.3299 29.5428C53.1858 29.3791 53.0116 29.2305 52.9365 29.0203C52.8322 28.735 52.8637 28.4265 52.8584 28.1292C52.8599 26.6766 52.8614 25.2247 52.8607 23.7729C52.8599 23.1686 52.8712 22.5605 52.7751 21.9622C52.7473 21.8286 52.7038 21.6544 52.5574 21.6094C51.8367 21.4735 51.0965 21.6439 50.4419 21.9517C49.9893 22.1491 49.5283 22.3661 49.1702 22.7129C49.0066 22.8713 49.0306 23.1153 49.0141 23.3232C48.9848 24.2743 48.9998 25.2262 49.0013 26.1774C49.0178 26.8057 48.9766 27.4386 49.0651 28.0624C49.1928 28.8476 49.6747 29.5278 50.2745 30.0292C50.4705 30.1869 50.6626 30.3498 50.8338 30.5337C50.2347 30.5435 49.6387 30.4677 49.0404 30.4616C48.4608 30.4466 47.8482 30.5029 47.3085 30.2492C46.7965 29.9684 46.527 29.3769 46.4857 28.8131C46.4309 26.9318 46.4962 25.0498 46.4797 23.1678C46.4692 22.5087 46.542 21.8218 46.286 21.1957C46.0563 20.6882 45.672 20.2551 45.2073 19.9488C44.9685 19.7709 44.6563 19.6297 44.5834 19.3107C45.7913 19.2401 47.0082 19.352 48.2153 19.2251C48.4578 19.2093 48.7063 19.2176 48.9428 19.2792C49.0771 19.412 49.0163 19.623 49.0479 19.7926C49.1845 19.7941 49.3369 19.8459 49.4653 19.7761C49.6522 19.6357 49.8053 19.4473 50.0215 19.3475Z" fill="#2D2F37"/>
<path d="M20.8454 19.2447C21.6787 19.1343 22.5247 19.1711 23.3625 19.2042C24.1815 19.2515 24.915 19.6696 25.5568 20.1508C26.7534 21.111 27.4801 22.5681 27.7053 24.0695C27.7902 25.2691 27.5785 26.5093 27.0072 27.5745C26.4374 28.6195 25.5388 29.473 24.4743 30.003C23.5645 30.4925 22.4902 30.5833 21.4782 30.4572C19.9663 30.2718 18.5648 29.3792 17.7473 28.0947C17.0941 27.1001 16.7526 25.926 16.6572 24.7466C16.661 24.0057 16.8832 23.2835 17.1444 22.5958C17.5611 21.4983 18.2652 20.4736 19.2764 19.8475C19.7531 19.5457 20.2846 19.3265 20.8454 19.2447ZM21.6442 21.4675C20.705 21.7138 19.8973 22.4374 19.5549 23.348C19.1623 24.3968 19.2539 25.5897 19.6953 26.6084C20.0391 27.3065 20.7388 27.7742 21.4677 27.9972C22.253 28.1946 23.0983 27.9821 23.7747 27.5595C24.436 27.1046 24.9563 26.3892 25.0508 25.5784C25.2122 24.655 25.0936 23.6761 24.6545 22.8443C24.3227 22.3353 23.8497 21.9029 23.2859 21.6672C22.7635 21.4803 22.1974 21.3729 21.6442 21.4675Z" fill="#2D2F37"/>
<path d="M27.2677 19.2655C28.8621 19.3016 30.4574 19.1754 32.0511 19.219C31.9896 19.3841 31.9093 19.5636 31.7253 19.6221C31.2832 19.7858 30.8725 20.0335 30.5437 20.3743C30.4694 20.4629 30.3951 20.5732 30.4176 20.6956C30.4732 21.1183 30.6406 21.5139 30.7794 21.9133C31.2959 23.266 31.7433 24.6496 32.3995 25.9445C32.6547 25.5925 32.7493 25.1616 32.8964 24.7599C33.1787 23.9574 33.4775 23.1617 33.7447 22.3539C34.0435 21.5101 34.2897 20.6341 34.7672 19.8691C34.9263 19.6078 35.1598 19.3541 35.4804 19.3181C36.2386 19.2257 37.0043 19.2971 37.7655 19.273C38.0928 19.2865 38.4426 19.219 38.7519 19.3564C39.0004 19.3436 39.2451 19.2828 39.4951 19.2798C40.8359 19.2798 42.1774 19.2648 43.5181 19.2933C43.5767 20.8855 43.5347 22.4793 43.5399 24.073C43.5362 25.1758 43.5369 26.2793 43.5324 27.3821C43.5309 27.9789 43.5392 28.578 43.633 29.1688C43.9445 29.4015 44.3169 29.5329 44.6374 29.7529C44.9137 29.9435 45.247 30.1079 45.3566 30.4533C44.2043 30.457 43.052 30.4585 41.8996 30.4428C41.6534 30.4232 41.3689 30.457 41.1654 30.2896C40.9079 30.0336 40.8937 29.6455 40.8531 29.3069C40.8058 27.012 40.8336 24.7164 40.8456 22.4207C40.8464 21.7826 40.8209 21.095 40.4575 20.5455C40.0446 19.9524 39.3945 19.5223 38.6784 19.4044C38.4111 19.4382 38.2002 19.6244 37.9982 19.7873C37.7332 20.0237 37.481 20.276 37.2445 20.5417C36.5013 21.5019 36.204 22.7 35.7754 23.814C35.2311 25.356 34.6456 26.8822 34.0991 28.4226C33.8889 29.0637 33.6043 29.6763 33.3994 30.3189C32.9933 30.46 32.5571 30.3587 32.1435 30.3099C31.8815 30.3001 31.5977 30.2551 31.413 30.0501C31.1706 29.7694 31.0527 29.409 30.8936 29.0795C30.3853 27.8919 29.9326 26.6817 29.4469 25.4859C28.8006 23.8966 28.2271 22.2743 27.4245 20.7542C27.2196 20.3007 26.9208 19.8909 26.7609 19.4179C26.812 19.195 27.1017 19.2873 27.2677 19.2655Z" fill="#2D2F37"/>
<path d="M1.36688 26.8613C1.92616 26.8155 2.58528 26.7404 3.05747 27.1075C3.39754 27.4949 3.53099 27.9735 3.62898 28.4986C3.60562 28.968 3.39303 29.3251 3.13479 29.6667C2.99666 29.8648 2.79622 30.0082 2.57327 30.0961C2.26473 30.2154 1.94117 30.3753 1.60261 30.292C0.920966 30.0953 0.272358 29.6164 0.0471472 28.9212C-0.117257 28.3589 0.177769 27.7929 0.478051 27.3327C0.681492 27.0445 1.03207 26.9161 1.36688 26.8613Z" fill="#2D2F37"/>
<path d="M37.1222 27.1112C37.6169 26.9949 38.1664 27.1623 38.5148 27.5324C38.9051 27.9317 39.2084 28.4542 39.2294 29.024C39.1926 29.5052 38.9171 29.9421 38.5658 30.2612C38.1439 30.629 37.5426 30.6185 37.0163 30.602C36.4833 30.593 36.1193 30.1351 35.882 29.7087C35.6351 29.3033 35.6148 28.7981 35.7514 28.3514C35.8828 27.696 36.5051 27.2599 37.1222 27.1112Z" fill="#2D2F37"/>
<path d="M35.3129 1.64451C35.8467 1.05821 36.6244 0.740665 37.3916 0.601784C38.2504 0.542479 39.1077 0.731656 39.9688 0.659588C39.92 0.801471 39.8457 0.93885 39.7001 0.999657C38.9508 1.39303 38.2482 1.88624 37.6739 2.51157C37.3646 2.83363 37.1559 3.24201 37.0463 3.67291C36.7145 4.76068 36.749 5.90926 36.728 7.03381C36.7145 8.98565 36.7716 10.9367 36.7618 12.8886C36.7716 13.6896 36.746 14.4928 36.8008 15.2931C37.478 15.2788 38.1461 15.1407 38.8232 15.1347C38.8045 16.0573 38.881 16.9866 38.7444 17.9025C38.2737 17.9843 37.7948 17.9566 37.3203 17.9648C36.3692 17.9738 35.418 17.9303 34.4676 17.9618C34.3258 17.9573 34.1726 17.9783 34.0465 17.9003C33.9482 17.585 33.9609 17.2464 33.8708 16.9288C33.4204 17.0587 33.0668 17.3755 32.72 17.675C32.354 17.9125 31.9975 18.0373 31.5944 18.1244C31.1447 18.2017 30.6376 18.2666 30.1789 18.202C29.7164 18.139 29.2548 18.0647 28.8013 17.9528C27.9973 17.7614 27.2992 17.2952 26.6243 16.838C25.8 16.1947 25.1281 15.3501 24.7017 14.3937C24.3662 13.586 24.234 12.7046 24.2588 11.8331C24.2378 10.9705 24.2994 10.0862 24.6282 9.27917C25.1417 8.10807 26.008 7.08486 27.1183 6.43851C27.9801 5.93253 28.9672 5.65252 29.9582 5.55643C30.8575 5.53016 31.7463 5.73885 32.5954 6.01811C33.0833 6.17876 33.5158 6.47229 34.0097 6.61642C34.0195 6.15474 34.018 5.69381 34.0165 5.23213C33.9737 3.92815 34.4834 2.63995 35.3129 1.64451ZM29.9041 8.25221C29.3471 8.34304 28.7968 8.53447 28.3457 8.8798C27.863 9.23338 27.6025 9.7949 27.3863 10.3347C26.9951 11.3481 27.0777 12.4937 27.4703 13.4936C27.7766 14.1693 28.3276 14.7143 28.9635 15.0851C29.4274 15.3704 29.9709 15.6016 30.5257 15.54C31.2201 15.3952 31.9258 15.1737 32.4805 14.7143C33.0954 14.2128 33.5661 13.5334 33.8273 12.785C34.045 12.1679 33.9692 11.5013 33.8423 10.8744C33.7124 10.1042 33.1697 9.47811 32.5804 9.00066C31.8417 8.39409 30.85 8.11633 29.9041 8.25221Z" fill="#2B5B9F"/>
<path d="M17.6632 5.48421C18.5295 5.34007 19.4333 5.38511 20.2704 5.65687C21.2313 5.97291 21.9565 6.79193 22.3213 7.71605C22.5352 8.28809 22.5368 8.90892 22.545 9.51098C22.56 11.45 22.5045 13.3906 22.584 15.3282C22.9151 15.3019 23.2507 15.2944 23.5705 15.1953C23.7889 15.127 24.0194 15.13 24.2461 15.1308C24.385 16.0293 24.2484 16.9392 24.3084 17.8423C22.7402 17.8423 21.1712 17.8378 19.6053 17.9279C19.4911 14.9949 19.654 12.0574 19.5107 9.12587C19.4604 8.80982 19.5144 8.4615 19.3605 8.17173C19.103 8.07789 18.8223 8.11242 18.555 8.13194C17.8936 8.20326 17.2255 8.34063 16.634 8.65668C16.2654 8.87814 15.8082 9.02528 15.5439 9.37435C15.3488 10.279 15.4148 11.2151 15.4021 12.1347C15.4223 13.2044 15.351 14.2787 15.4621 15.3455C16.0439 15.2899 16.5979 15.0654 17.1857 15.0609C17.2405 15.9918 17.161 16.9249 17.1947 17.8573C16.8509 17.9159 16.4996 17.8948 16.152 17.9061C14.9096 17.9054 13.6657 17.9279 12.424 17.8828C12.409 15.9423 12.4338 14.0009 12.4548 12.0596C12.4683 10.8127 12.418 9.56503 12.454 8.31886C11.837 8.33238 11.2214 8.37442 10.6043 8.38718C10.5473 7.53513 10.5127 6.68233 10.4789 5.82953C11.9946 5.81602 13.5118 5.86106 15.0267 5.80401C15.3465 5.73344 15.4253 6.12681 15.6062 6.30848C16.2684 5.98342 16.9072 5.54126 17.6632 5.48421Z" fill="#24A039"/>
<path d="M4.34268 5.83031C5.97321 5.83781 7.63633 5.79714 9.2661 5.83918C9.30122 6.14382 9.27417 6.44804 9.28314 6.76048C9.28723 6.90306 9.27135 7.04452 9.28381 7.18307C9.35213 9.28354 9.28532 11.3855 9.35513 13.4852C9.3724 14.0948 9.36189 14.7044 9.38891 15.3139C9.93918 15.2471 10.4804 15.0887 11.0405 15.1255C11.2049 16.0331 11.1058 16.9595 11.042 17.8716C9.49326 17.8663 7.94306 17.9332 6.39436 17.8956C6.37183 14.7179 6.37559 11.5394 6.32979 8.36243C5.7007 8.35793 5.01099 8.37144 4.37806 8.32829C4.32039 7.923 4.40274 7.45183 4.37421 7.03443C4.36145 6.63281 4.32391 6.23193 4.34268 5.83031Z" fill="#CD328A"/>
<path d="M38.5861 5.79053C40.173 5.79803 41.7593 5.84608 43.3463 5.82881C43.3853 7.55693 43.3568 9.2858 43.3778 11.0139C43.3763 12.4493 43.4033 13.8854 43.3778 15.3215C43.7862 15.2509 44.1863 15.0925 44.6082 15.1308C44.7208 15.112 44.7523 15.2456 44.7816 15.3252C44.9926 16.136 45.0158 16.9835 44.949 17.8146C43.5009 17.8844 42.0483 17.8311 40.5987 17.8453C40.5364 14.6699 40.6272 11.4921 40.5724 8.31665C39.9246 8.34893 39.2775 8.39772 38.6319 8.45778C38.6514 7.56894 38.6476 6.67786 38.5861 5.79053Z" fill="#0A957A"/>
<path d="M30.0032 10.1613C30.582 10.0134 31.1788 10.2574 31.6218 10.6245C31.8875 10.8504 32.0587 11.1815 32.0827 11.5306C32.2021 12.285 31.7269 13.0515 31.0647 13.3916C30.1181 13.7902 28.8749 13.0237 28.8329 11.9855C28.8314 11.5403 29.0311 11.1297 29.2548 10.7566C29.4229 10.4796 29.6842 10.2446 30.0032 10.1613Z" fill="#FCB408"/>
</g>
<defs>
<clipPath id="clip0_1335_1698">
<rect width="57.2012" height="36" fill="white"/>
</clipPath>
</defs>
</svg>
